<svg width="720" height="438" viewBox="0 0 720 438" fill="none" xmlns="http://www.w3.org/2000/svg">
<path d="M118.971 81.092C116.391 86.034 112.588 89.1534 112.588 89.1534L115.879 94.0211L130.003 114.228L129.568 114.332C129.568 114.332 147.47 107.096 152.569 104.585C156.754 102.478 167.583 98.7311 169.714 93.0692C170.48 91.092 169.805 88.6782 168.156 87.3721C167.196 86.6364 165.779 86.1025 163.994 86.7144C163.994 86.7144 169.311 82.8178 166.74 78.8353C164.169 74.8528 161.049 76.7967 161.049 76.7967C161.049 76.7967 166.584 71.5142 163.57 67.2238C163.57 67.2238 161.606 64.6134 158.179 65.6652L160.122 64.3716L169.976 57.7312C172.399 56.1385 173.262 52.8502 171.665 50.4276C170.091 47.9077 166.777 47.1388 164.234 48.8063L136.649 66.8268L140.746 54.4386C141.804 51.1955 137.86 47.818 135.641 48.5343C135.641 48.5343 132.349 49.0018 130.278 53.9595C128.672 57.7938 118.971 81.092 118.971 81.092Z" fill="#F5F5F5"/>
<path d="M118.971 81.0917C118.971 81.0917 119.016 80.8969 119.204 80.53C119.391 80.1631 119.646 79.5041 119.924 78.7476C120.599 77.16 121.529 74.9134 122.737 71.9103C123.945 68.9072 125.483 65.365 127.179 61.1412C128.064 59.0893 129.017 56.7453 129.97 54.4012C130.457 53.1805 131.042 51.9824 132.017 50.8748C132.873 49.8419 134.118 48.8995 135.542 48.5119C136.435 48.2059 137.387 48.5294 138.122 48.9051C138.857 49.2808 139.524 49.9487 140.071 50.6913C140.619 51.4338 141.024 52.3486 141.016 53.2702C141.068 53.4876 141.001 53.7798 140.956 53.9745C140.911 54.1693 140.843 54.4614 140.798 54.6562C140.686 55.1431 140.498 55.51 140.385 55.9969C139.26 59.5321 138.014 63.1421 136.799 67.0669L136.454 66.7816C144.179 61.802 152.549 56.2537 161.519 50.3316C162.119 49.9578 162.621 49.5614 163.221 49.1876C163.821 48.8137 164.324 48.4173 164.999 48.1635C166.349 47.6558 167.879 47.7029 169.198 48.2143C170.518 48.7257 171.68 49.9188 172.19 51.2683C172.699 52.6178 172.632 54.2437 172.024 55.5392C171.769 56.1982 171.319 56.812 170.771 57.4032C170.246 57.8971 169.646 58.2709 169.024 58.7421C167.824 59.4897 166.601 60.3347 165.499 61.105C163.076 62.6977 160.654 64.2903 158.209 65.9804L158.006 65.523C159.214 65.1875 160.669 65.1146 161.943 65.8207C162.506 66.0538 162.948 66.3617 163.368 66.7669C163.54 66.9095 163.788 67.1721 163.915 67.5095C164.065 67.7495 164.215 67.9895 164.343 68.3269C164.822 69.3616 164.845 70.598 164.597 71.6692C164.079 73.9089 162.751 75.653 161.251 77.2545L160.951 76.7745C162.249 76.0494 163.876 76.1192 165.128 76.9227C165.766 77.2758 166.261 77.801 166.635 78.401C166.883 78.6636 167.033 78.9036 167.16 79.2409L167.363 79.6983L167.542 80.2531C167.955 81.5799 167.497 83.1154 166.837 84.1935C166.154 85.369 165.224 86.2819 164.197 87.1721L163.897 86.6921C165.247 86.1845 166.874 86.2542 168.006 87.1325C169.161 87.9134 169.985 89.2334 170.18 90.6124C170.337 91.2645 170.277 91.9688 170.12 92.6505C169.962 93.3321 169.61 93.9686 169.377 94.5302C168.694 95.7057 167.764 96.6186 166.737 97.5088C162.694 100.778 157.947 102.652 153.687 104.639C149.405 106.724 145.115 108.396 141.118 110.137C137.045 111.757 133.191 113.325 129.651 114.864L129.546 114.429C129.763 114.377 129.861 114.399 129.981 114.325L129.816 114.594C124.208 106.419 119.402 99.6605 115.714 94.2902L115.909 94.3354L115.789 94.4102L115.714 94.2902C114.417 92.3476 113.442 90.7877 112.423 89.4225L112.348 89.3025L112.468 89.2277C114.928 87.0282 116.541 84.9398 117.486 83.5174C117.958 82.8062 118.311 82.1698 118.498 81.8029C118.828 81.2638 118.971 81.0917 118.971 81.0917C118.971 81.0917 118.573 81.9229 117.703 83.4653C116.758 84.8877 115.22 87.096 112.76 89.2956L112.805 89.1008C113.727 90.4434 114.799 92.026 116.096 93.9685L115.901 93.9233L116.021 93.8485L116.096 93.9685C119.807 99.2415 124.613 106 130.221 114.175L130.371 114.415L130.056 114.445C129.936 114.519 129.741 114.474 129.621 114.549L129.418 114.092C133.056 112.575 136.911 111.007 140.885 109.364C144.883 107.624 149.172 105.952 153.455 103.867C157.812 101.902 162.462 100.006 166.384 96.8115C167.292 95.996 168.222 95.0831 168.882 94.005C169.115 93.4434 169.445 92.9043 169.58 92.32C169.715 91.7357 169.655 91.1062 169.595 90.4767C169.355 89.2924 168.606 88.0925 167.646 87.3568C166.589 86.5985 165.277 86.4992 164.024 87.0295L162.217 87.7388L163.724 86.5495C164.729 85.7567 165.562 84.8212 166.222 83.7431C166.882 82.665 167.272 81.4216 166.838 80.1921C166.478 79.0826 165.608 77.9574 164.551 77.1991C163.471 76.5382 162.039 76.5137 160.981 77.0892L159.346 77.9412L160.681 76.6092C162.137 75.2025 163.389 73.3385 163.862 71.2935C164.335 69.2485 163.615 67.0295 161.561 66.1424C160.459 65.5789 159.124 65.577 158.014 65.9351L156.251 66.4497L157.714 65.4551C160.136 63.8625 162.581 62.1724 165.004 60.5798C166.226 59.7348 167.426 58.9871 168.529 58.2169C169.129 57.843 169.729 57.4692 170.254 56.9754C170.779 56.4816 171.109 55.9425 171.364 55.2835C171.949 54.0854 171.972 52.6542 171.44 51.4021C171.005 50.1726 170.015 49.1222 168.793 48.6334C167.571 48.1446 166.236 48.1427 165.006 48.5756C164.429 48.8521 163.829 49.2259 163.349 49.5249C162.749 49.8988 162.246 50.2952 161.646 50.669C152.699 56.4937 144.231 62.0193 136.506 66.999L136.101 67.4181L136.356 66.759C137.647 62.9543 138.818 59.2243 140.041 55.7117C140.341 54.8579 140.738 54.0267 140.626 53.1798C140.611 52.3555 140.184 51.5381 139.734 50.8182C139.284 50.0982 138.594 49.5277 137.86 49.152C137.125 48.7763 136.345 48.5954 135.595 48.7292C134.29 49.0421 133.068 49.8872 132.212 50.92C131.357 51.9529 130.772 53.151 130.21 54.2517C129.234 56.6931 128.206 58.9172 127.419 60.9917C125.626 65.1929 124.185 68.7576 122.88 71.7381C121.597 74.6212 120.644 76.9653 119.991 78.4555C119.714 79.2119 119.384 79.751 119.271 80.2379C119.038 80.7995 118.971 81.0917 118.971 81.0917Z" fill="#E0E0E0"/>
<path d="M122.838 119.461L105.658 93.8277C104.361 91.8854 104.872 89.2338 106.814 87.9403L107.054 87.7908C108.996 86.4973 111.65 87.0105 112.947 88.9528L130.127 114.586C131.424 116.528 130.914 119.18 128.971 120.473L128.731 120.623C126.789 121.916 124.135 121.403 122.838 119.461Z" fill="#F5F5F5"/>
<path d="M122.838 119.461C122.838 119.461 122.988 119.701 123.505 120.128C123.925 120.533 124.637 121.006 125.732 121.158C126.219 121.271 126.849 121.212 127.502 121.055C128.154 120.899 128.776 120.428 129.301 119.934C130.449 118.969 131.019 116.947 130.187 115.215C125.675 108.526 119.491 99.294 112.587 89.1772C111.837 87.9773 110.345 87.3234 108.891 87.3963C108.164 87.4328 107.489 87.6866 106.986 88.083C106.386 88.4568 105.861 88.9505 105.629 89.5121C104.946 90.6875 104.998 92.2385 105.576 93.2957C106.348 94.3981 107.097 95.598 107.772 96.6778C110.763 101.065 113.334 105.047 115.627 108.452C117.846 111.736 119.57 114.496 120.867 116.438C121.466 117.398 121.916 118.118 122.313 118.621C122.711 119.123 122.838 119.461 122.838 119.461C122.838 119.461 122.591 119.198 122.291 118.718C121.894 118.216 121.444 117.496 120.822 116.633C119.525 114.691 117.681 112.006 115.44 108.819C113.124 105.511 110.455 101.507 107.464 97.1194C106.692 96.017 105.92 94.9145 105.171 93.7147C104.444 92.4175 104.436 90.6718 105.141 89.3991C105.494 88.7627 106.041 88.1716 106.761 87.723C107.384 87.2519 108.156 87.0207 109.003 86.9095C110.578 86.7618 112.242 87.5583 113.164 88.9008C120.045 99.1149 126.229 108.347 130.622 115.111C131.604 117.083 130.794 119.254 129.624 120.317C128.979 120.885 128.281 121.236 127.629 121.393C126.977 121.549 126.249 121.586 125.762 121.473C124.57 121.299 123.88 120.728 123.46 120.323C122.988 119.701 122.838 119.461 122.838 119.461Z" fill="#E0E0E0"/>
<path d="M147.839 72.1842C147.764 72.0642 150.014 70.3287 152.939 68.3394C155.864 66.3501 158.263 64.8546 158.436 64.9972C158.511 65.1172 156.261 66.8527 153.336 68.842C150.411 70.8313 147.914 72.3041 147.839 72.1842Z" fill="#E0E0E0"/>
<path d="M154.661 80.8482C154.586 80.7282 155.951 79.711 157.675 78.4694C159.378 77.3252 160.915 76.4505 160.99 76.5705C161.065 76.6905 159.7 77.7077 157.975 78.9493C156.273 80.0935 154.833 80.9908 154.661 80.8482Z" fill="#E0E0E0"/>
<path d="M157.651 90.9842C157.576 90.8642 158.941 89.847 160.666 88.6054C162.368 87.4612 163.905 86.5865 163.98 86.7065C164.055 86.8265 162.69 87.8438 160.965 89.0854C159.165 90.207 157.726 91.1042 157.651 90.9842Z" fill="#E0E0E0"/>
<path d="M167.556 43.8039C167.436 43.8787 166.897 40.88 166.493 37.297C166.089 33.7139 165.865 30.6857 165.962 30.7083C166.082 30.6335 166.621 33.6321 167.025 37.2152C167.527 40.8209 167.773 43.7517 167.556 43.8039Z" fill="#E0E0E0"/>
<path d="M173.081 46.5172C173.006 46.3972 175.677 43.7329 179.09 40.5225C182.503 37.3121 185.443 34.813 185.518 34.933C185.593 35.053 182.922 37.7173 179.51 40.9277C176.097 44.1381 173.156 46.6372 173.081 46.5172Z" fill="#E0E0E0"/>
<path d="M176.12 52.4578C176.165 52.2631 179.245 52.2592 183.03 52.3161C186.816 52.373 189.949 52.5864 189.903 52.7811C189.858 52.9757 186.778 52.9796 182.993 52.9227C179.208 52.8658 176.172 52.675 176.12 52.4578Z" fill="#E0E0E0"/>
<path d="M697.8 107.5C684.9 114.2 675 125.7 667.9 138.4C660.8 151.1 656.2 165 651.6 178.8L647.6 250C662.6 224.5 674.7 194.4 677.9 165C674.6 164.7 671.2 164.4 667.9 164.1C674.6 163.1 680.2 158.2 683.8 152.5C687.4 146.7 689.2 140.1 691 133.6C686.9 134.2 682.9 134.8 678.8 135.4C688.5 129 695.4 118.8 697.8 107.5Z" fill="#E0E0E0"/>
<path d="M645.501 266.7C645.501 266.7 612.901 227.7 613.301 190.4H626.501C626.501 190.4 612.201 181 613.301 175.7C614.401 170.4 614.801 150.5 614.801 150.5L626.801 153.5C626.801 153.5 617.801 149 616.601 141.8C615.501 134.7 619.201 101.5 619.201 101.5C619.201 101.5 633.901 116.9 638.401 132.7C642.901 148.5 654.801 166.9 651.301 215.1C647.801 263.4 645.501 266.7 645.501 266.7Z" fill="#EBEBEB"/>
<path d="M661.999 270.4C661.999 270.4 697.299 246.9 705.199 216.8L694.599 213.9C694.599 213.9 708.199 209.5 708.399 205C708.599 200.5 712.699 184.4 712.699 184.4L702.399 184.2C702.399 184.2 710.699 182.5 713.099 177C715.599 171.5 719.799 144.1 719.799 144.1C719.799 144.1 704.599 153.3 697.499 165C690.399 176.7 676.799 188.9 669.099 228.4C661.399 267.9 661.999 270.4 661.999 270.4Z" fill="#EBEBEB"/>
<path d="M628.201 135.7C628.201 135.7 628.201 135.8 628.301 136.1C628.401 136.4 628.501 136.8 628.601 137.3C628.801 138.4 629.201 139.9 629.601 141.9C630.001 143.9 630.601 146.4 631.101 149.2C631.701 152.1 632.401 155.3 633.001 159C634.401 166.2 635.901 174.9 637.401 184.5C638.901 194.1 640.301 204.7 641.601 215.9C642.901 227.1 643.901 237.7 644.601 247.4C645.301 257.1 645.901 265.9 646.201 273.2C646.401 276.9 646.501 280.2 646.601 283.1C646.701 286 646.801 288.5 646.801 290.6C646.801 292.6 646.801 294.2 646.901 295.3C646.901 295.8 646.901 296.2 646.901 296.5C646.901 296.8 646.901 296.9 646.901 296.9C646.901 296.9 646.901 296.8 646.901 296.5C646.901 296.2 646.901 295.8 646.801 295.3C646.801 294.2 646.701 292.6 646.601 290.6C646.501 288.5 646.501 286 646.301 283.1C646.201 280.2 646.101 276.8 645.901 273.2C645.601 265.8 645.001 257.1 644.201 247.4C643.401 237.7 642.401 227 641.101 215.9C639.801 204.7 638.301 194.1 636.901 184.5C635.401 174.9 634.001 166.2 632.601 159C632.001 155.4 631.301 152.1 630.801 149.2C630.301 146.3 629.801 143.9 629.301 141.8C628.901 139.8 628.601 138.2 628.401 137.1C628.301 136.6 628.201 136.2 628.201 135.9C628.201 135.8 628.101 135.7 628.201 135.7Z" fill="#E0E0E0"/>
<path d="M640.9 290.6C640.9 290.6 611.1 256.8 601.8 236.3L608.8 233.3C603.7 234.1 598.5 232 594.6 228.7C590.7 225.4 587.8 221 584.9 216.8L594.1 215.2C585.7 212.8 578.3 207.1 574 199.6C584.9 201.4 594.7 207.4 602.8 214.8C609.4 220.8 614.9 227.9 620.3 235C622.9 238.5 625.2 242.2 627.1 246.1C632.1 256.5 640.9 278.2 640.9 290.6Z" fill="#EBEBEB"/>
<path d="M705.599 163.8C705.599 163.8 705.599 163.9 705.499 164.1C705.399 164.3 705.199 164.7 704.999 165.1C704.599 166 703.999 167.2 703.199 168.9C702.399 170.5 701.399 172.5 700.299 174.8C699.199 177.1 697.899 179.8 696.599 182.7C693.799 188.6 690.699 195.6 687.299 203.4C683.899 211.3 680.299 220 676.799 229.2C673.199 238.4 669.999 247.3 667.299 255.4C664.499 263.5 662.099 270.8 660.199 277C659.199 280.1 658.399 282.9 657.699 285.4C656.899 287.9 656.299 290 655.799 291.7C655.299 293.4 654.899 294.8 654.599 295.7C654.499 296.1 654.399 296.5 654.299 296.7C654.199 296.9 654.199 297.1 654.199 297C654.199 297 654.199 296.9 654.299 296.6C654.399 296.3 654.499 296 654.599 295.5C654.899 294.5 655.199 293.2 655.699 291.5C656.199 289.8 656.799 287.6 657.499 285.1C658.199 282.6 658.999 279.8 659.999 276.7C661.899 270.5 664.199 263.1 666.999 255C669.799 246.9 672.999 238 676.499 228.8C680.099 219.6 683.699 210.9 687.099 203C690.499 195.2 693.699 188.1 696.499 182.3C697.899 179.4 699.199 176.7 700.299 174.4C701.399 172.1 702.399 170.1 703.299 168.5C704.099 166.9 704.799 165.7 705.199 164.8C705.399 164.4 705.599 164.1 705.699 163.8C705.599 163.9 705.599 163.8 705.599 163.8Z" fill="#E0E0E0"/>
<path d="M643.5 305.1C643.5 305.1 643.4 304.9 643.4 304.5C643.3 304 643.2 303.4 643.1 302.7C643 301.9 642.8 301 642.6 299.9C642.4 298.8 642.2 297.5 641.9 296.2C641.4 293.4 640.6 290.2 639.6 286.6C638.6 283 637.4 279.1 635.8 275.1C634.3 271.1 632.6 267.3 631 264C629.4 260.7 627.8 257.7 626.3 255.3C625.6 254.1 624.9 253 624.3 252C623.7 251 623.2 250.2 622.8 249.6C622.4 249 622.1 248.5 621.8 248.1C621.6 247.7 621.5 247.6 621.5 247.5C621.5 247.5 621.7 247.7 621.9 248C622.2 248.4 622.5 248.9 623 249.5C623.5 250.1 624 250.9 624.6 251.9C625.2 252.8 625.9 253.9 626.6 255.1C628.1 257.5 629.7 260.5 631.4 263.8C633 267.2 634.7 270.9 636.3 275C637.8 279 639 283 640 286.6C641 290.2 641.7 293.5 642.2 296.3C642.5 297.7 642.6 299 642.8 300.1C643 301.2 643.1 302.2 643.2 303C643.3 303.7 643.3 304.3 643.4 304.8C643.5 304.9 643.5 305.1 643.5 305.1Z" fill="#E0E0E0"/>
<path d="M682.8 297.1H617.5V310.4H682.8V297.1Z" fill="#E0E0E0"/>
<path d="M623.699 310.4L630.799 355.2H670.299L676.899 310.4H623.699Z" fill="#E0E0E0"/>
<path d="M678.8 310.4C678.8 310.5 666.4 310.7 651.2 310.7C636 310.7 623.6 310.6 623.6 310.4C623.6 310.2 636 310.1 651.2 310.1C666.5 310.2 678.8 310.3 678.8 310.4Z" fill="#EBEBEB"/>
<path d="M328.901 225.4L296.801 355.2H305.301L338.201 225.4H328.901Z" fill="#F5F5F5"/>
<path d="M389.401 225.4L419.401 355.2H411.001L380.201 225.4H389.401Z" fill="#F5F5F5"/>
<path d="M364.3 353.3H354.5L353 204.3H362.8L364.3 353.3Z" fill="#F5F5F5"/>
<path d="M427.3 116.8H288.5V205.7H427.3V116.8Z" fill="#EBEBEB"/>
<path d="M392.8 224H323.1V232.6H392.8V224Z" fill="#F5F5F5"/>
<path d="M297.7 194.1C297.7 194.1 297.8 194.6 297.8 195.7H297.6C297.5 191.4 297.4 176.9 297.4 159.9C297.4 149.6 297.5 140.3 297.5 133.4C297.5 130.1 297.6 127.4 297.6 125.4C297.6 124.5 297.6 123.8 297.7 123.2C297.7 122.7 297.7 122.4 297.8 122.4C297.8 122.4 297.8 122.7 297.9 123.2C297.9 123.8 297.9 124.5 298 125.4C298 127.4 298.1 130.1 298.1 133.4C298.1 140.3 298.2 149.6 298.2 159.9C298.2 177 298.1 191.4 298 195.7H297.8C297.7 194.7 297.7 194.1 297.7 194.1Z" fill="#F5F5F5"/>
<path d="M308.101 194.1C308.101 194.1 308.201 194.6 308.201 195.7H308.001C307.901 191.4 307.801 176.9 307.801 159.9C307.801 149.6 307.901 140.3 307.901 133.4C307.901 130.1 308.001 127.4 308.001 125.4C308.001 124.5 308.001 123.8 308.101 123.2C308.101 122.7 308.101 122.4 308.201 122.4C308.201 122.4 308.201 122.7 308.301 123.2C308.301 123.8 308.301 124.5 308.401 125.4C308.401 127.4 308.501 130.1 308.501 133.4C308.501 140.3 308.601 149.6 308.601 159.9C308.601 177 308.501 191.4 308.401 195.7H308.001C308.001 194.7 308.001 194.1 308.101 194.1Z" fill="#F5F5F5"/>
<path d="M318.4 194.1C318.4 194.1 318.5 194.6 318.5 195.7H318.3C318.2 191.4 318.1 176.9 318.1 159.9C318.1 149.6 318.2 140.3 318.2 133.4C318.2 130.1 318.3 127.4 318.3 125.4C318.3 124.5 318.3 123.8 318.4 123.2C318.4 122.7 318.4 122.4 318.5 122.4C318.5 122.4 318.5 122.7 318.6 123.2C318.6 123.8 318.6 124.5 318.7 125.4C318.7 127.4 318.8 130.1 318.8 133.4C318.8 140.3 318.9 149.6 318.9 159.9C318.9 177 318.8 191.4 318.7 195.7H318.5C318.3 194.7 318.4 194.1 318.4 194.1Z" fill="#F5F5F5"/>
<path d="M328.7 194.1C328.7 194.1 328.8 194.6 328.8 195.7H328.6C328.5 191.4 328.4 176.9 328.4 159.9C328.4 149.6 328.5 140.3 328.5 133.4C328.5 130.1 328.6 127.4 328.6 125.4C328.6 124.5 328.6 123.8 328.7 123.2C328.7 122.7 328.7 122.4 328.8 122.4C328.8 122.4 328.8 122.7 328.9 123.2C328.9 123.8 328.9 124.5 329 125.4C329 127.4 329.1 130.1 329.1 133.4C329.1 140.3 329.2 149.6 329.2 159.9C329.2 177 329.1 191.4 329 195.7H328.8C328.7 194.7 328.7 194.1 328.7 194.1Z" fill="#F5F5F5"/>
<path d="M339.101 194.1C339.101 194.1 339.201 194.6 339.201 195.7H339.001C338.901 191.4 338.801 176.9 338.801 159.9C338.801 149.6 338.901 140.3 338.901 133.4C338.901 130.1 339.001 127.4 339.001 125.4C339.001 124.5 339.001 123.8 339.101 123.2C339.101 122.7 339.101 122.4 339.201 122.4C339.201 122.4 339.201 122.7 339.301 123.2C339.301 123.8 339.301 124.5 339.401 125.4C339.401 127.4 339.501 130.1 339.501 133.4C339.501 140.3 339.601 149.6 339.601 159.9C339.601 177 339.501 191.4 339.401 195.7H339.001C339.001 194.7 339.001 194.1 339.101 194.1Z" fill="#F5F5F5"/>
<path d="M349.4 194.1C349.4 194.1 349.5 194.6 349.5 195.7H349.3C349.2 191.4 349.1 176.9 349.1 159.9C349.1 149.6 349.2 140.3 349.2 133.4C349.2 130.1 349.3 127.4 349.3 125.4C349.3 124.5 349.3 123.8 349.4 123.2C349.4 122.7 349.4 122.4 349.5 122.4C349.5 122.4 349.5 122.7 349.6 123.2C349.6 123.8 349.6 124.5 349.7 125.4C349.7 127.4 349.8 130.1 349.8 133.4C349.8 140.3 349.9 149.6 349.9 159.9C349.9 177 349.8 191.4 349.7 195.7H349.5C349.3 194.7 349.4 194.1 349.4 194.1Z" fill="#F5F5F5"/>
<path d="M359.7 194.1C359.7 194.1 359.8 194.6 359.8 195.7H359.6C359.5 191.4 359.4 176.9 359.4 159.9C359.4 149.6 359.5 140.3 359.5 133.4C359.5 130.1 359.6 127.4 359.6 125.4C359.6 124.5 359.6 123.8 359.7 123.2C359.7 122.7 359.7 122.4 359.8 122.4C359.8 122.4 359.8 122.7 359.9 123.2C359.9 123.8 359.9 124.5 360 125.4C360 127.4 360.1 130.1 360.1 133.4C360.1 140.3 360.2 149.6 360.2 159.9C360.2 177 360.1 191.4 360 195.7H359.8C359.7 194.7 359.7 194.1 359.7 194.1Z" fill="#F5F5F5"/>
<path d="M370.101 194.1C370.101 194.1 370.201 194.6 370.201 195.7H370.001C369.901 191.4 369.801 176.9 369.801 159.9C369.801 149.6 369.901 140.3 369.901 133.4C369.901 130.1 370.001 127.4 370.001 125.4C370.001 124.5 370.001 123.8 370.101 123.2C370.101 122.7 370.101 122.4 370.201 122.4C370.201 122.4 370.201 122.7 370.301 123.2C370.301 123.8 370.301 124.5 370.401 125.4C370.401 127.4 370.501 130.1 370.501 133.4C370.501 140.3 370.601 149.6 370.601 159.9C370.601 177 370.501 191.4 370.401 195.7H370.001C370.001 194.7 370.001 194.1 370.101 194.1Z" fill="#F5F5F5"/>
<path d="M380.4 194.1C380.4 194.1 380.5 194.6 380.5 195.7H380.3C380.2 191.4 380.1 176.9 380.1 159.9C380.1 149.6 380.2 140.3 380.2 133.4C380.2 130.1 380.3 127.4 380.3 125.4C380.3 124.5 380.3 123.8 380.4 123.2C380.4 122.7 380.4 122.4 380.5 122.4C380.5 122.4 380.5 122.7 380.6 123.2C380.6 123.8 380.6 124.5 380.7 125.4C380.7 127.4 380.8 130.1 380.8 133.4C380.8 140.3 380.9 149.6 380.9 159.9C380.9 177 380.8 191.4 380.7 195.7H380.5C380.3 194.7 380.4 194.1 380.4 194.1Z" fill="#F5F5F5"/>
<path d="M390.7 194.1C390.7 194.1 390.8 194.6 390.8 195.7H390.6C390.5 191.4 390.4 176.9 390.4 159.9C390.4 149.6 390.5 140.3 390.5 133.4C390.5 130.1 390.6 127.4 390.6 125.4C390.6 124.5 390.6 123.8 390.7 123.2C390.7 122.7 390.7 122.4 390.8 122.4C390.8 122.4 390.8 122.7 390.9 123.2C390.9 123.8 390.9 124.5 391 125.4C391 127.4 391.1 130.1 391.1 133.4C391.1 140.3 391.2 149.6 391.2 159.9C391.2 177 391.1 191.4 391 195.7H390.8C390.7 194.7 390.7 194.1 390.7 194.1Z" fill="#F5F5F5"/>
<path d="M401.101 194.1C401.101 194.1 401.201 194.6 401.201 195.7H401.001C400.901 191.4 400.801 176.9 400.801 159.9C400.801 149.6 400.901 140.3 400.901 133.4C400.901 130.1 401.001 127.4 401.001 125.4C401.001 124.5 401.001 123.8 401.101 123.2C401.101 122.7 401.101 122.4 401.201 122.4C401.201 122.4 401.201 122.7 401.301 123.2C401.301 123.8 401.301 124.5 401.401 125.4C401.401 127.4 401.501 130.1 401.501 133.4C401.501 140.3 401.601 149.6 401.601 159.9C401.601 177 401.501 191.4 401.401 195.7H401.001C401.001 194.7 401.001 194.1 401.101 194.1Z" fill="#F5F5F5"/>
<path d="M411.4 194.1C411.4 194.1 411.5 194.6 411.5 195.7H411.3C411.2 191.4 411.1 176.9 411.1 159.9C411.1 149.6 411.2 140.3 411.2 133.4C411.2 130.1 411.3 127.4 411.3 125.4C411.3 124.5 411.3 123.8 411.4 123.2C411.4 122.7 411.4 122.4 411.5 122.4C411.5 122.4 411.5 122.7 411.6 123.2C411.6 123.8 411.6 124.5 411.7 125.4C411.7 127.4 411.8 130.1 411.8 133.4C411.8 140.3 411.9 149.6 411.9 159.9C411.9 177 411.8 191.4 411.7 195.7H411.5C411.3 194.7 411.4 194.1 411.4 194.1Z" fill="#F5F5F5"/>
<path d="M421.7 194.1C421.7 194.1 421.8 194.6 421.8 195.7H421.6C421.5 191.4 421.4 176.9 421.4 159.9C421.4 149.6 421.5 140.3 421.5 133.4C421.5 130.1 421.6 127.4 421.6 125.4C421.6 124.5 421.6 123.8 421.7 123.2C421.7 122.7 421.7 122.4 421.8 122.4C421.8 122.4 421.8 122.7 421.9 123.2C421.9 123.8 421.9 124.5 422 125.4C422 127.4 422.1 130.1 422.1 133.4C422.1 140.3 422.2 149.6 422.2 159.9C422.2 177 422.1 191.4 422 195.7H421.8C421.7 194.7 421.7 194.1 421.7 194.1Z" fill="#F5F5F5"/>
<path d="M526.702 53.2998L518.902 123.5C517.602 135.4 513.202 152.7 494.402 149.7C478.302 145.9 475.902 129.9 477.102 118.8C477.702 113.5 478.202 109.1 478.202 108.6C478.202 108.6 460.502 104.9 461.202 87.0998C461.502 78.4998 463.602 60.7998 465.702 44.7998C468.002 27.5998 483.002 15.0998 500.302 15.9998L502.002 16.0998C520.602 17.9998 529.202 34.7998 526.702 53.2998Z" fill="#FFCEB5"/>
<path d="M478.201 108.6C478.201 108.6 489.401 109.8 501.701 102.9C501.701 102.9 495.401 115.6 477.701 113.1L478.201 108.6Z" fill="#DEA78E"/>
<path d="M495.001 55.6995C495.301 56.0995 497.501 54.6995 500.501 54.9995C503.501 55.1995 505.501 56.9995 505.901 56.6995C506.101 56.4995 505.801 55.8995 504.901 55.0995C504.001 54.2995 502.501 53.4995 500.701 53.2995C498.901 53.0995 497.201 53.6995 496.301 54.2995C495.301 54.8995 494.901 55.4995 495.001 55.6995Z" fill="#263238"/>
<path d="M494.401 61.8994C494.301 63.1994 495.301 64.2994 496.601 64.3994C497.901 64.4994 499.101 63.5994 499.201 62.3994C499.301 61.0994 498.301 59.9994 497.001 59.8994C495.601 59.6994 494.501 60.5994 494.401 61.8994Z" fill="#263238"/>
<path d="M485.101 75.3995C485.101 75.1995 483.401 74.8995 480.701 74.3995C480.001 74.2995 479.301 74.0995 479.301 73.5995C479.201 73.0995 479.501 72.2995 479.901 71.5995C480.601 69.8995 481.401 68.1995 482.201 66.3995C485.501 58.9995 487.801 52.7995 487.501 52.6995C487.201 52.5995 484.301 58.4995 481.101 65.8995C480.301 67.6995 479.601 69.4995 478.901 71.1995C478.601 71.9995 478.101 72.8995 478.401 73.8995C478.601 74.3995 479.101 74.7995 479.501 74.9995C479.901 75.1995 480.301 75.1995 480.701 75.1995C483.401 75.3995 485.101 75.4995 485.101 75.3995Z" fill="#263238"/>
<path d="M497.702 44.7997C497.902 45.4997 500.302 45.2997 503.102 45.7997C505.902 46.1997 508.202 47.1997 508.602 46.5997C508.802 46.2997 508.402 45.6997 507.502 44.9997C506.602 44.2997 505.202 43.5997 503.502 43.2997C501.802 42.9997 500.202 43.1997 499.202 43.5997C498.102 43.8997 497.602 44.3997 497.702 44.7997Z" fill="#263238"/>
<path d="M469.901 44.7997C470.101 45.3997 472.501 45.0997 475.301 45.2997C478.101 45.4997 480.401 46.1997 480.701 45.6997C480.901 45.3997 480.501 44.8997 479.501 44.3997C478.601 43.8997 477.101 43.2997 475.401 43.1997C473.701 43.0997 472.201 43.2997 471.201 43.6997C470.301 43.9997 469.801 44.4997 469.901 44.7997Z" fill="#263238"/>
<path d="M524.602 66.3998C524.902 66.2998 537.002 63.3998 536.002 75.5998C535.002 87.7998 523.002 84.1998 523.002 83.8998C523.002 83.4998 524.602 66.3998 524.602 66.3998Z" fill="#FFCEB5"/>
<path d="M527.102 79.4999C527.202 79.4999 527.302 79.6999 527.602 79.8999C527.902 80.0999 528.502 80.1999 529.202 80.0999C530.502 79.6999 531.802 77.7999 532.002 75.5999C532.102 74.4999 532.002 73.3999 531.702 72.4999C531.402 71.5999 530.902 70.8999 530.202 70.6999C529.602 70.4999 529.102 70.7999 528.902 71.1999C528.702 71.4999 528.802 71.7999 528.702 71.7999C528.702 71.7999 528.502 71.5999 528.602 71.0999C528.702 70.8999 528.802 70.5999 529.102 70.3999C529.402 70.1999 529.902 70.0999 530.302 70.1999C531.202 70.2999 532.002 71.2999 532.402 72.2999C532.802 73.2999 533.002 74.4999 532.902 75.7999C532.602 78.1999 531.202 80.3999 529.402 80.7999C528.502 80.9999 527.802 80.5999 527.502 80.2999C527.102 79.7999 527.102 79.5999 527.102 79.4999Z" fill="#6F4C47"/>
<path d="M486.901 84.0997C486.801 83.7997 489.301 83.3997 491.201 81.2997C492.201 80.2997 492.801 79.1997 493.301 78.2997C493.801 77.4997 494.101 76.8997 494.201 76.9997C494.301 77.0997 494.201 77.5997 493.901 78.5997C493.601 79.4997 493.001 80.7997 491.901 81.8997C490.801 82.9997 489.501 83.5997 488.501 83.8997C487.601 84.2997 486.901 84.1997 486.901 84.0997Z" fill="#263238"/>
<path d="M469.002 51.8997C469.302 52.2997 471.502 50.8997 474.502 51.1997C477.502 51.3997 479.502 53.1997 479.902 52.8997C480.102 52.6997 479.802 52.0997 478.902 51.2997C478.002 50.4997 476.502 49.6997 474.702 49.4997C472.902 49.2997 471.202 49.8997 470.302 50.4997C469.202 51.0997 468.902 51.6997 469.002 51.8997Z" fill="#263238"/>
<path d="M468.802 58.6997C468.702 59.9997 469.702 61.0997 471.002 61.1997C472.302 61.2997 473.502 60.3997 473.602 59.1997C473.702 57.8997 472.702 56.7997 471.402 56.6997C470.102 56.4997 468.902 57.3997 468.802 58.6997Z" fill="#263238"/>
<path d="M534.201 55.4998C533.301 58.8998 531.201 66.5998 528.201 65.8998C522.201 64.4998 522.601 74.1998 519.701 72.9998C516.801 71.8998 516.101 64.1998 516.401 61.1998C517.401 51.6998 521.101 44.7998 517.001 33.9998C514.401 29.6998 509.801 26.7998 504.701 26.7998C499.601 26.7998 494.801 29.4998 492.201 33.7998C491.601 30.4998 489.801 25.4998 486.801 23.8998C483.801 22.3998 479.801 22.5998 477.301 24.8998C474.801 27.1998 474.201 31.3998 476.301 34.0998C474.901 34.5998 473.301 33.9998 472.501 32.7998C472.401 34.3998 473.001 35.8998 474.101 37.0998C472.901 36.7998 471.801 36.0998 471.001 35.0998C471.301 36.4998 471.701 37.8998 472.001 39.1998C467.001 39.4998 461.901 34.6998 460.401 30.3998C458.101 23.8998 459.601 17.1998 463.201 11.1998C466.701 5.2998 473.201 0.999804 480.201 0.899804C487.101 0.799804 493.001 3.8998 495.801 10.2998C500.201 6.9998 509.301 5.6998 514.301 7.8998C519.401 10.0998 523.101 14.9998 523.801 20.4998C526.901 19.0998 530.701 19.9998 533.401 22.0998C533.601 22.2998 533.801 22.4998 534.101 22.5998C537.801 25.8998 539.401 30.8998 538.601 35.7998C538.301 37.6998 537.701 39.6998 537.301 41.2998C536.101 45.7998 534.201 55.4998 534.201 55.4998Z" fill="#263238"/>
<path d="M471.702 32.4998C471.702 32.4998 471.502 32.3998 471.302 32.1998C471.002 31.9998 470.702 31.5998 470.302 31.0998C469.502 30.0998 468.502 28.3998 468.202 26.0998C467.902 23.8998 468.302 20.8998 470.402 18.4998C472.402 16.1998 475.702 14.4998 479.302 14.8998C481.102 15.0998 482.702 15.7998 484.102 16.6998C485.502 17.5998 486.702 18.6998 487.702 19.7998C489.702 22.0998 490.902 24.6998 491.502 26.8998C492.102 29.0998 492.202 30.9998 492.202 32.1998C492.202 32.7998 492.102 33.2998 492.102 33.6998C492.102 33.9998 492.002 34.1998 492.002 34.1998C491.902 34.1998 492.402 31.2998 491.102 26.9998C490.402 24.8998 489.302 22.3998 487.302 20.1998C485.402 17.9998 482.602 15.8998 479.202 15.4998C475.802 15.0998 472.602 16.6998 470.702 18.8998C468.702 21.0998 468.302 23.9998 468.502 26.0998C468.802 28.2998 469.602 29.9998 470.402 30.9998C471.202 31.9998 471.702 32.4998 471.702 32.4998Z" fill="#455A64"/>
<path d="M469.501 37.8996C469.501 37.8996 469.401 37.6996 469.101 37.2996C468.901 36.8996 468.501 36.3996 468.101 35.5996C467.301 34.0996 466.101 31.9996 465.201 29.0996C464.701 27.6996 464.401 25.9996 464.301 24.1996C464.201 22.3996 464.401 20.4996 465.201 18.5996C465.901 16.6996 467.301 14.9996 469.101 13.6996C470.901 12.4996 473.101 11.5996 475.501 11.3996C477.801 11.1996 480.101 11.5996 482.201 12.2996C484.301 12.9996 486.101 14.0996 487.701 15.2996C490.901 17.6996 493.101 20.7996 493.901 23.7996C494.701 26.7996 494.301 29.2996 493.701 30.8996C493.401 31.6996 493.101 32.2996 492.901 32.6996C492.701 33.0996 492.501 33.2996 492.501 33.1996C492.401 33.1996 493.001 32.3996 493.601 30.7996C494.101 29.1996 494.401 26.6996 493.601 23.8996C492.801 20.9996 490.701 17.9996 487.501 15.6996C484.401 13.3996 480.201 11.5996 475.601 11.8996C473.401 12.0996 471.201 12.8996 469.501 14.0996C467.801 15.2996 466.501 16.9996 465.701 18.7996C465.001 20.5996 464.701 22.4996 464.801 24.1996C464.901 25.8996 465.201 27.4996 465.601 28.9996C466.501 31.8996 467.601 33.9996 468.301 35.4996C468.701 36.1996 469.001 36.7996 469.201 37.1996C469.401 37.5996 469.501 37.7996 469.501 37.8996Z" fill="#455A64"/>
<path d="M529.902 47.9998C529.802 47.8998 531.002 47.0998 532.402 45.3998C533.802 43.6998 535.402 40.9998 536.002 37.5998C536.602 34.2998 536.102 31.1998 535.402 29.0998C534.702 26.9998 534.002 25.7998 534.002 25.7998C534.002 25.7998 534.202 26.0998 534.602 26.5998C534.902 27.0998 535.302 27.9998 535.702 28.9998C536.502 31.0998 537.102 34.2998 536.502 37.7998C535.902 41.1998 534.202 43.9998 532.702 45.6998C532.002 46.5998 531.302 47.1998 530.802 47.5998C530.202 47.7998 529.902 47.9998 529.902 47.9998Z" fill="#455A64"/>
<path d="M519.102 47.8999C519.102 47.8999 519.702 47.5999 520.602 46.9999C521.502 46.2999 522.702 45.1999 523.502 43.3999L524.002 42.2999L523.902 43.4999C523.802 45.1999 523.702 47.0999 523.502 49.0999L523.102 48.8999C524.502 47.8999 525.802 46.5999 526.902 44.9999C528.302 42.9999 529.102 40.7999 529.402 38.6999C529.702 36.5999 529.602 34.6999 529.202 33.1999C528.502 30.0999 527.302 28.3999 527.402 28.3999C527.402 28.3999 527.502 28.4999 527.602 28.6999C527.702 28.8999 527.902 29.1999 528.102 29.5999C528.502 30.3999 529.102 31.5999 529.502 33.1999C529.902 34.7999 530.102 36.6999 529.802 38.8999C529.502 40.9999 528.702 43.2999 527.302 45.3999C526.202 46.9999 524.802 48.3999 523.402 49.3999L523.002 49.6999V49.1999C523.202 47.0999 523.302 45.1999 523.502 43.5999L523.902 43.6999C523.102 45.5999 521.702 46.7999 520.802 47.3999C520.302 47.6999 519.902 47.8999 519.602 47.9999C519.302 47.8999 519.102 47.8999 519.102 47.8999Z" fill="#455A64"/>
<path d="M515.302 23.1997C515.202 23.2997 514.702 21.4997 512.502 19.8997C511.402 19.0997 510.002 18.2997 508.202 17.9997C506.502 17.6997 504.402 17.8997 502.502 18.5997C500.602 19.3997 499.002 20.5997 497.802 21.8997C496.602 23.1997 495.902 24.6997 495.302 25.8997C494.302 28.3997 494.202 30.1997 494.102 30.0997C494.102 30.0997 494.102 29.6997 494.202 28.8997C494.302 28.0997 494.502 26.9997 495.002 25.6997C495.502 24.3997 496.202 22.8997 497.402 21.4997C498.602 20.0997 500.302 18.7997 502.202 17.9997C504.202 17.1997 506.302 16.9997 508.102 17.3997C509.902 17.6997 511.402 18.5997 512.502 19.4997C513.602 20.3997 514.302 21.2997 514.602 21.9997C514.802 22.2997 514.902 22.5997 515.002 22.7997C515.302 23.0997 515.302 23.1997 515.302 23.1997Z" fill="#455A64"/>
<path d="M512.302 14.1999C512.202 14.2999 511.102 13.4999 509.002 12.9999C506.902 12.4999 503.802 12.6999 500.902 14.2999C498.102 15.8999 496.302 18.4999 495.302 20.3999C494.302 22.2999 494.002 23.6999 493.902 23.5999C493.902 23.5999 493.902 23.2999 494.102 22.6999C494.202 22.0999 494.502 21.2999 495.002 20.2999C495.902 18.2999 497.702 15.5999 500.702 13.8999C503.702 12.1999 507.002 12.0999 509.102 12.6999C510.202 12.9999 511.002 13.2999 511.502 13.6999C512.102 13.9999 512.302 14.1999 512.302 14.1999Z" fill="#455A64"/>
<path d="M440.3 291.2L552.1 292.7C552.1 292.7 583.4 279.6 591.9 279.3C600.5 278.9 617.5 280 625.4 292.7C633.5 305.8 634.7 329 609.6 345.8C585.1 362.2 473.3 377.3 458 375.9L429.7 338C429.7 338 429.4 306.9 429.7 305.4C430 303.9 434.7 290.6 434.7 290.6L440.3 291.2Z" fill="#263238"/>
<path d="M507.2 343.7L565.1 365.2L538.7 437.4C532 434.5 531.8 392.1 531.8 392.1L494.1 379.8L507.2 343.7Z" fill="#009ECD"/>
<g opacity="0.6">
<g opacity="0.6">
<g opacity="0.6">
<g opacity="0.6">
<g opacity="0.6">
<g opacity="0.6">
<g opacity="0.6">
<g opacity="0.6">
<g opacity="0.6">
<g opacity="0.6">
<g opacity="0.6">
<g opacity="0.6">
<g opacity="0.6">
<path opacity="0.6" d="M536.8 368.6C537.7 367.3 539.6 367 540.9 367.8C542.2 368.6 542.6 370.6 541.7 371.9C540.8 373.2 538.5 373.7 537.3 372.7C536.1 371.7 535.7 369.4 536.9 368.4" fill="white"/>
</g>
</g>
</g>
</g>
</g>
</g>
</g>
</g>
</g>
</g>
</g>
</g>
</g>
<path d="M565.1 365.2L559.3 363L536.1 433.2C536.1 433.2 536.3 436.9 538.7 437.4L565.1 365.2Z" fill="#263238"/>
<path d="M531 393.1C531.4 393.2 532.2 391.5 533.9 390.2C535.6 388.8 537.5 388.5 537.5 388.1C537.6 387.8 535.3 387.5 533.1 389.1C531 390.8 530.6 393 531 393.1Z" fill="#263238"/>
<path d="M531.3 401.8C531.6 402 532.8 400.7 534.7 400C536.6 399.3 538.3 399.6 538.4 399.2C538.6 398.9 536.6 397.9 534.2 398.7C531.9 399.6 531 401.7 531.3 401.8Z" fill="#263238"/>
<path d="M538.8 409.4C539 409.1 537.4 408 535.1 408.2C532.8 408.4 531.5 409.8 531.7 410C531.9 410.3 533.3 409.6 535.2 409.5C537.1 409.3 538.6 409.7 538.8 409.4Z" fill="#263238"/>
<path d="M522.7 389.3C523.1 389.3 523.2 387.5 524 385.5C524.8 383.5 526.1 382.2 525.8 381.9C525.6 381.6 523.8 382.6 522.8 384.9C521.8 387.3 522.3 389.4 522.7 389.3Z" fill="#263238"/>
<path d="M514.699 384.5C514.799 384.6 515.599 383.2 515.999 380.9C516.199 379.7 516.299 378.3 516.199 376.7C516.099 375.9 515.999 375.1 515.899 374.2C515.799 373.8 515.699 373.3 515.399 372.8C515.199 372.3 514.299 371.7 513.599 372C512.899 372.2 512.399 372.7 512.199 373.2C511.999 373.7 511.899 374.2 511.899 374.6C511.799 375.5 511.799 376.3 511.799 377.1C511.899 378.7 512.299 380.1 512.799 381.2C513.699 383.4 514.799 384.5 514.999 384.4C515.199 384.3 514.399 383.1 513.699 380.9C513.399 379.8 513.099 378.5 513.099 377C513.099 376.3 513.099 375.5 513.199 374.7C513.299 373.9 513.499 373.2 513.899 373.1C514.099 373.1 514.099 373.1 514.299 373.3C514.399 373.5 514.499 373.9 514.599 374.3C514.799 375.1 514.899 375.9 514.999 376.6C515.199 378.1 515.199 379.4 515.099 380.6C514.999 383 514.499 384.4 514.699 384.5Z" fill="#263238"/>
<path d="M515.399 384.2C515.499 384.1 514.499 382.9 512.299 382C511.199 381.5 509.799 381.1 508.199 381C507.399 381 506.499 381 505.699 381.1C504.799 381.3 503.699 381.4 502.999 382.7C502.699 383.4 503.099 384.2 503.499 384.6C503.899 385 504.299 385.2 504.699 385.5C505.499 385.9 506.299 386.2 507.099 386.4C508.699 386.7 510.199 386.6 511.399 386.2C513.799 385.5 514.699 384.2 514.599 384.1C514.499 383.9 513.299 384.899 511.099 385.299C509.999 385.499 508.699 385.6 507.299 385.2C506.599 385 505.899 384.8 505.199 384.4C504.499 384 503.999 383.5 504.099 383.2C504.199 382.8 504.999 382.4 505.699 382.4C506.499 382.3 507.299 382.2 507.999 382.2C509.499 382.2 510.799 382.499 511.899 382.799C514.099 383.499 515.299 384.4 515.399 384.2Z" fill="#263238"/>
<path d="M459.4 334.8L403.4 360.8L435.4 430.7C441.9 427.2 438.7 385 438.7 385L475.3 369.8L459.4 334.8Z" fill="#009ECD"/>
<g opacity="0.6">
<g opacity="0.6">
<g opacity="0.6">
<g opacity="0.6">
<g opacity="0.6">
<g opacity="0.6">
<g opacity="0.6">
<g opacity="0.6">
<g opacity="0.6">
<g opacity="0.6">
<g opacity="0.6">
<g opacity="0.6">
<g opacity="0.6">
<path opacity="0.6" d="M431.8 361.9C430.8 360.7 428.9 360.5 427.6 361.4C426.4 362.3 426.1 364.3 427.1 365.5C428.1 366.7 430.4 367.1 431.5 366C432.6 364.9 432.8 362.6 431.6 361.7" fill="white"/>
</g>
</g>
</g>
</g>
</g>
</g>
</g>
</g>
</g>
</g>
</g>
</g>
</g>
<path d="M403.4 360.8L409.1 358.2L437.7 426.3C437.7 426.3 437.8 430 435.4 430.7L403.4 360.8Z" fill="#263238"/>
<path d="M439.6 385.9C439.3 386 438.3 384.4 436.5 383.2C434.7 382 432.8 381.8 432.8 381.4C432.7 381.1 435 380.6 437.2 382.1C439.4 383.6 439.9 385.8 439.6 385.9Z" fill="#263238"/>
<path d="M439.9 394.6C439.6 394.8 438.3 393.6 436.4 393.1C434.4 392.5 432.7 393 432.6 392.6C432.4 392.3 434.3 391.2 436.7 391.8C439.1 392.5 440.2 394.4 439.9 394.6Z" fill="#263238"/>
<path d="M433 402.8C432.8 402.5 434.3 401.3 436.5 401.3C438.8 401.3 440.2 402.6 440 402.9C439.8 403.2 438.3 402.6 436.5 402.7C434.7 402.5 433.2 403.1 433 402.8Z" fill="#263238"/>
<path d="M447.5 381.5C447.1 381.5 446.9 379.7 445.9 377.8C444.9 375.9 443.6 374.7 443.8 374.4C444 374.1 445.9 375 447.1 377.2C448.2 379.4 447.9 381.5 447.5 381.5Z" fill="#263238"/>
<path d="M455.001 376C454.901 376.1 454.001 374.8 453.401 372.5C453.101 371.3 452.901 369.9 452.801 368.3C452.801 367.5 452.801 366.7 452.901 365.8C453.001 365.4 453.001 364.9 453.201 364.4C453.401 363.9 454.201 363.2 454.901 363.4C455.601 363.5 456.101 364 456.401 364.5C456.701 365 456.701 365.5 456.801 365.9C457.001 366.8 457.001 367.6 457.001 368.4C457.001 370 456.701 371.4 456.401 372.6C455.601 374.9 454.601 376 454.501 376C454.301 375.9 455.001 374.6 455.501 372.4C455.701 371.3 455.901 370 455.801 368.5C455.801 367.8 455.701 367 455.501 366.2C455.401 365.4 455.101 364.7 454.701 364.7C454.501 364.7 454.501 364.7 454.301 365C454.201 365.3 454.101 365.6 454.101 366.1C454.001 366.9 453.901 367.7 453.901 368.4C453.901 369.9 454.001 371.3 454.201 372.4C454.701 374.6 455.201 376 455.001 376Z" fill="#263238"/>
<path d="M454.4 375.8C454.3 375.7 455.2 374.5 457.4 373.3C458.5 372.7 459.9 372.2 461.5 372C462.3 371.9 463.2 371.9 464 371.9C464.9 372 466 372.1 466.8 373.3C467.1 374 466.9 374.8 466.5 375.2C466.1 375.6 465.7 375.9 465.4 376.1C464.6 376.6 463.8 377 463 377.2C461.4 377.7 459.9 377.6 458.7 377.4C456.3 376.9 455.2 375.6 455.3 375.5C455.4 375.3 456.6 376.2 458.8 376.4C459.9 376.5 461.2 376.5 462.6 376C463.3 375.8 464 375.4 464.6 375C465.3 374.6 465.8 374 465.6 373.8C465.4 373.5 464.6 373.1 463.9 373.1C463.1 373 462.3 373 461.6 373.1C460.1 373.2 458.8 373.6 457.8 374C455.6 375 454.5 376 454.4 375.8Z" fill="#263238"/>
<path d="M434.701 290.6C434.701 290.6 386.4 272.6 368.7 274.9C358.8 276.2 343.2 283.8 342.1 296.5C340.9 309.2 344 326.3 361.2 334.6C378.4 342.9 446.9 373.6 463.201 378.4C479.501 383.1 520.101 394.2 520.101 394.2L535.501 350.2C535.501 350.2 451.4 321.1 446.9 317.8C442.5 314.5 431.201 310.1 431.201 310.1L434.701 290.6Z" fill="#263238"/>
<path d="M602.501 296.6C602.501 296.6 602.401 296.6 602.201 296.5C602.001 296.4 601.601 296.3 601.201 296.2C600.301 295.9 599.101 295.6 597.401 295.2C595.801 294.8 593.701 294.4 591.401 294.1C589.001 293.9 586.301 293.9 583.301 294.1C580.301 294.4 577.001 294.9 573.601 295.9C571.901 296.4 570.201 297.1 568.501 297.9C566.801 298.7 565.001 299.6 563.201 300.5C556.001 304 547.901 307.5 539.301 310.9C522.101 317.8 505.601 321.1 493.801 323.7C487.901 325 483.101 326.1 479.801 326.9C478.201 327.3 476.901 327.6 476.001 327.8C475.601 327.9 475.301 328 475.001 328C474.801 328 474.701 328.1 474.701 328.1C474.701 328.1 474.801 328.1 475.001 328C475.201 327.9 475.601 327.8 476.001 327.7C476.901 327.5 478.101 327.1 479.801 326.7C483.101 325.9 487.801 324.7 493.701 323.4C505.501 320.6 521.901 317.3 539.101 310.4C547.701 307 555.701 303.5 563.001 300.1C564.801 299.2 566.601 298.4 568.301 297.6C570.001 296.8 571.801 296.1 573.501 295.6C576.901 294.6 580.201 294 583.301 293.8C586.301 293.6 589.101 293.6 591.501 293.9C593.901 294.2 595.901 294.6 597.601 295C599.201 295.4 600.501 295.8 601.301 296.1C601.701 296.2 602.001 296.4 602.301 296.4C602.401 296.6 602.501 296.6 602.501 296.6Z" fill="#455A64"/>
<path d="M599.901 290.3C599.901 290.4 598.401 290.1 596.101 289.9C593.701 289.6 590.501 289.4 586.801 289.6C583.201 289.8 579.901 290.3 577.601 290.8C575.301 291.3 573.901 291.7 573.801 291.6C573.801 291.6 574.101 291.4 574.801 291.2C575.401 291 576.401 290.7 577.501 290.4C579.801 289.8 583.101 289.2 586.701 289C590.401 288.8 593.701 289.1 596.001 289.4C597.201 289.6 598.101 289.8 598.801 289.9C599.601 290.1 599.901 290.2 599.901 290.3Z" fill="#455A64"/>
<path d="M414.4 303.4C414.3 303.5 413 302.4 410.7 301C408.4 299.6 405.1 297.8 401.1 296.4C397.2 295 393.5 294.3 390.8 294C388.1 293.7 386.4 293.6 386.4 293.5C386.4 293.5 386.8 293.4 387.6 293.4C388.4 293.4 389.5 293.4 390.8 293.6C393.5 293.8 397.3 294.5 401.2 295.9C405.2 297.3 408.5 299.1 410.8 300.7C411.9 301.5 412.8 302.1 413.4 302.6C414.1 303.1 414.4 303.4 414.4 303.4Z" fill="#455A64"/>
<path d="M438.601 369C438.601 369 438.701 369 439.001 369.1C439.301 369.2 439.601 369.4 440.101 369.6C441.101 370 442.501 370.7 444.401 371.4C448.201 372.9 453.701 374.9 460.801 377.3C475.101 382 495.501 387.9 520.101 394.1L519.801 394.2C524.401 381.5 529.401 367.5 534.701 352.8L534.801 353.1C528.901 350.7 522.701 348.1 516.301 345.5C475.601 328.7 439.001 313.7 414.101 303.4C409.901 299 406.101 295.1 402.501 292C398.901 288.9 395.601 286.5 392.801 284.7C390.001 282.9 387.701 281.8 386.101 281C385.301 280.6 384.701 280.4 384.301 280.2C383.901 280 383.701 279.9 383.701 279.9C383.701 279.9 383.901 280 384.301 280.2C384.701 280.4 385.301 280.6 386.101 281C387.701 281.8 390.001 282.9 392.801 284.6C395.601 286.3 399.001 288.7 402.601 291.9C406.201 295 410.101 298.9 414.301 303.3H414.201C439.101 313.5 475.701 328.5 516.501 345.2C522.801 347.8 529.101 350.4 535.001 352.8L535.201 352.9L535.101 353.1C529.801 367.8 524.701 381.8 520.101 394.5L520.001 394.7L519.801 394.6C495.301 388.4 474.801 382.4 460.601 377.6C453.501 375.2 447.901 373.1 444.201 371.6C442.301 370.9 440.901 370.2 440.001 369.7C439.501 369.5 439.201 369.3 438.901 369.2C438.701 369 438.601 369 438.601 369Z" fill="#455A64"/>
<path d="M557.9 136.8C557.9 136.8 571.8 144.8 574.6 154.2C576.3 159.9 589.3 233 591.3 247.4C593.4 261.9 589 272.5 582.9 277.3C576.8 282.1 558.1 288.4 558.1 288.4L531.9 296.9L524.4 277.8L549.3 242L546.9 217.9L557.9 136.8Z" fill="#009ECD"/>
<path d="M530.6 124.2L520.2 118.2C520.2 118.2 510.7 129.3 497.7 128C484.7 126.6 477.1 116.7 477.1 116.7L438.4 124.6C435.8 125.1 431.1 126.8 426.5 133.2C421.5 140.4 397.5 172.4 397.5 172.4H380.7C376.1 172.4 371.8 175 369.7 179C366.8 184.4 363.4 191.7 363.7 194.8C364.3 199.9 363.3 213.9 370.1 218.3C372.3 219.7 380 223.8 386.1 223.6C395 223.2 405.3 218.6 411.3 214.4C416.3 210.9 428.1 198.7 432.6 193.9V194L435.5 295.5L536.9 292.6L557.9 136.9C557.9 136.8 531.6 124.2 530.6 124.2Z" fill="#009ECD"/>
<path d="M432.2 151.4C432.3 151.4 432.6 164 432.8 179.5C433 195 433 207.6 432.9 207.6C432.8 207.6 432.5 195 432.3 179.5C432.1 164 432.1 151.4 432.2 151.4Z" fill="#263238"/>
<path d="M570.2 233.4C570.2 233.5 569.3 233.5 567.8 233.8C566.3 234.1 564.1 234.7 561.5 235.8C558.9 236.9 556.1 238.6 553.1 240.8C550.2 243 547.2 245.8 544.3 248.9C541.4 252 538.8 255.1 536.3 257.9C533.8 260.7 531.5 263.1 529.4 264.9C527.3 266.8 525.5 268.2 524.2 269.1C523.6 269.6 523 269.9 522.7 270.1C522.3 270.3 522.2 270.4 522.1 270.4C522.1 270.4 522.3 270.2 522.6 270C522.9 269.7 523.4 269.4 524.1 268.9C525.4 268 527.1 266.5 529.2 264.6C531.2 262.7 533.5 260.3 536 257.5C538.5 254.7 541.1 251.6 544 248.5C546.9 245.4 549.9 242.6 552.9 240.3C555.9 238.1 558.8 236.4 561.4 235.3C564 234.2 566.2 233.7 567.8 233.4C568.6 233.2 569.2 233.2 569.6 233.2C570 233.4 570.2 233.4 570.2 233.4Z" fill="#263238"/>
<path d="M572.499 226.5C572.499 226.6 570.999 226.8 568.499 227.5C566.099 228.2 562.799 229.399 559.499 231.299C556.199 233.299 553.599 235.6 551.899 237.4C550.199 239.2 549.199 240.5 549.199 240.4C549.199 240.4 549.399 240 549.799 239.5C550.199 238.9 550.799 238.1 551.699 237.2C553.399 235.3 555.999 232.9 559.299 230.9C562.599 228.9 565.999 227.7 568.399 227.2C569.599 226.9 570.599 226.7 571.299 226.7C572.099 226.5 572.499 226.5 572.499 226.5Z" fill="#263238"/>
<g opacity="0.3">
<g opacity="0.3">
<path opacity="0.3" d="M383.699 208.7C389.099 210.2 395.499 202.4 400.399 197.6C402.899 195.1 405.599 192.4 406.499 189C407.299 186.2 406.799 183.1 405.699 180.3C404.599 177.6 403.799 175.8 402.099 173.4C402.499 177.6 403.599 184 402.199 189.2C400.999 193.6 398.299 197 395.299 200.3C392.199 203.8 388.599 207.5 383.699 208.7Z" fill="black"/>
</g>
</g>
<path d="M406.699 204.3C406.599 204.3 407.199 202.5 407.699 199.6C407.999 198.1 408.099 196.4 408.199 194.4C408.199 192.5 408.099 190.3 407.799 188.1C407.399 185.9 406.899 183.8 406.299 182C405.599 180.2 404.899 178.6 404.199 177.3C402.799 174.7 401.699 173.2 401.799 173.2C401.799 173.2 402.099 173.5 402.599 174.2C402.899 174.5 403.199 174.9 403.499 175.4C403.799 175.9 404.199 176.5 404.499 177.1C405.199 178.4 405.999 180 406.699 181.9C407.399 183.8 407.899 185.9 408.299 188.1C408.599 190.4 408.699 192.5 408.699 194.5C408.599 196.5 408.399 198.2 408.099 199.7C407.999 200.4 407.799 201.1 407.599 201.7C407.499 202.3 407.299 202.8 407.199 203.2C406.899 203.9 406.699 204.3 406.699 204.3Z" fill="#263238"/>
<path d="M481.201 120.6C481.301 120.7 480.101 121.4 478.801 122.5C477.501 123.6 476.701 124.7 476.601 124.6C476.501 124.5 477.101 123.3 478.501 122.1C479.801 121 481.201 120.5 481.201 120.6Z" fill="#263238"/>
<path d="M491.8 126.8C491.9 126.9 490.9 128 490.1 129.6C489.3 131.2 489 132.699 488.8 132.699C488.7 132.699 488.7 131.099 489.6 129.399C490.5 127.599 491.7 126.7 491.8 126.8Z" fill="#263238"/>
<path d="M509.899 133.1C509.799 133.1 509.299 131.7 508.699 130.1C508.099 128.4 507.499 127.1 507.699 127C507.799 126.9 508.599 128.2 509.199 129.9C509.799 131.6 509.999 133.1 509.899 133.1Z" fill="#263238"/>
<path d="M521.5 127.6C521.3 127.6 520.9 125.9 519.8 124C518.7 122.1 517.3 120.9 517.4 120.8C517.5 120.7 519.1 121.7 520.3 123.7C521.4 125.7 521.6 127.6 521.5 127.6Z" fill="#263238"/>
<path d="M554.899 160.5C554.999 160.5 553.3 174.4 551.1 191.4C548.8 208.5 546.9 222.299 546.7 222.299C546.6 222.299 548.299 208.4 550.499 191.3C552.799 174.3 554.699 160.5 554.899 160.5Z" fill="#263238"/>
<path d="M402.901 182.9C402.901 182.9 402.901 183.4 402.901 184.3C402.901 184.8 402.801 185.3 402.701 186C402.601 186.3 402.601 186.7 402.501 187C402.401 187.4 402.301 187.7 402.201 188.1C401.801 189.7 401.101 191.6 400.201 193.5C399.201 195.5 398.001 197.5 396.501 199.6C394.901 201.6 393.301 203.3 391.501 204.7C389.801 206 388.101 207.1 386.501 207.7C386.101 207.9 385.801 208 385.401 208.2C385.001 208.3 384.701 208.4 384.401 208.5C384.101 208.6 383.801 208.7 383.501 208.7C383.201 208.8 383.001 208.8 382.701 208.8C381.801 208.9 381.301 208.9 381.301 208.9C381.301 208.8 383.401 208.7 386.301 207.4C387.801 206.8 389.401 205.7 391.101 204.4C392.801 203 394.401 201.3 395.901 199.4C397.401 197.4 398.601 195.4 399.601 193.5C400.501 191.5 401.301 189.7 401.701 188.2C402.801 185 402.801 182.9 402.901 182.9Z" fill="#263238"/>
<g opacity="0.3">
<g opacity="0.3">
<path opacity="0.3" d="M551.602 298.9C555.902 296.8 556.902 291.2 557.302 286.5C558.602 272.6 559.902 258.6 561.202 244.7C561.802 238.1 562.102 230.7 557.502 226C553.302 221.7 546.602 221.5 540.602 221.5C503.502 221.6 470.702 222.7 433.602 222.8L435.502 287.7L551.602 298.9Z" fill="black"/>
</g>
</g>
<path d="M417.601 232.8L421.601 308.1C421.801 311 424.201 313.3 427.101 313.3L547.001 313.5C549.901 313.5 552.401 311.2 552.501 308.3L557.101 234.3C557.301 231.2 555.101 227.1 552.001 227.1H423.301C420.001 227 417.401 229.6 417.601 232.8Z" fill="#E0E0E0"/>
<path d="M417.601 232.8C417.601 232.8 417.601 232.7 417.601 232.5C417.601 232.3 417.601 232 417.601 231.7C417.701 231 418.001 229.8 419.001 228.8C419.501 228.3 420.201 227.8 421.001 227.4C421.801 227 422.801 227 423.901 227C426.001 227 428.401 227 431.201 227C442.201 227 458.101 226.9 477.701 226.9C497.301 226.9 520.701 226.9 546.601 226.8C548.201 226.8 549.901 226.8 551.501 226.8C552.301 226.8 553.301 227 554.001 227.4C554.701 227.9 555.301 228.5 555.801 229.2C556.801 230.6 557.301 232.3 557.301 234.1C557.201 235.8 557.101 237.5 557.001 239.2C556.601 246 556.201 252.9 555.701 259.9C554.801 274 553.901 288.6 553.001 303.5L552.801 306.3C552.701 307.2 552.701 308.1 552.601 309.1C552.201 311 550.801 312.7 549.001 313.3C548.101 313.7 547.101 313.7 546.201 313.7H543.401C541.601 313.7 539.701 313.7 537.901 313.7C530.601 313.7 523.401 313.7 516.401 313.7C502.301 313.7 488.701 313.6 475.701 313.6C462.701 313.6 450.401 313.5 438.901 313.5C436.001 313.5 433.201 313.5 430.401 313.5C429.701 313.5 429.001 313.5 428.301 313.5C427.601 313.5 426.901 313.5 426.201 313.4C424.801 313.2 423.501 312.5 422.601 311.4C421.701 310.3 421.201 308.9 421.301 307.6C421.201 306.3 421.201 305 421.101 303.7C421.001 301.1 420.801 298.6 420.701 296.2C419.701 276.6 418.901 260.8 418.301 249.8C418.001 244.3 417.801 240.1 417.701 237.2C417.601 235.8 417.601 234.7 417.601 233.9C417.601 233.2 417.601 232.8 417.601 232.8C417.601 232.8 417.601 233.2 417.701 233.9C417.701 234.6 417.801 235.7 417.901 237.2C418.101 240.1 418.301 244.3 418.601 249.8C419.201 260.8 420.101 276.6 421.101 296.2C421.201 298.6 421.401 301.2 421.501 303.7C421.601 305 421.601 306.3 421.701 307.6C421.701 308.9 422.101 310.2 423.001 311.2C423.801 312.2 425.001 312.9 426.301 313C426.901 313.1 427.601 313 428.301 313.1C429.001 313.1 429.701 313.1 430.401 313.1C433.201 313.1 436.001 313.1 438.901 313.1C450.401 313.1 462.801 313.1 475.701 313.1C488.701 313.1 502.301 313.1 516.401 313.2C523.501 313.2 530.601 313.2 537.901 313.2C539.701 313.2 541.601 313.2 543.401 313.2H546.201C547.101 313.2 548.001 313.2 548.801 312.9C550.501 312.3 551.801 310.8 552.101 309C552.201 308.1 552.201 307.2 552.301 306.3L552.501 303.5C553.401 288.6 554.301 274 555.201 259.9C555.601 252.9 556.101 245.9 556.501 239.2C556.601 237.5 556.701 235.8 556.801 234.2C556.801 232.6 556.301 231 555.401 229.6C554.501 228.3 553.101 227.3 551.501 227.4C549.901 227.4 548.201 227.4 546.601 227.4C520.701 227.4 497.301 227.4 477.701 227.4C458.101 227.4 442.201 227.3 431.201 227.3C428.501 227.3 426.001 227.3 423.901 227.3C422.801 227.3 421.901 227.3 421.101 227.7C420.301 228 419.601 228.5 419.101 229C418.101 230 417.801 231.2 417.701 231.9C417.501 232.4 417.601 232.8 417.601 232.8Z" fill="#263238"/>
<path d="M488.202 276.6C492.123 276.6 495.302 273.421 495.302 269.5C495.302 265.579 492.123 262.4 488.202 262.4C484.28 262.4 481.102 265.579 481.102 269.5C481.102 273.421 484.28 276.6 488.202 276.6Z" fill="white"/>
<path d="M495.201 269.5C495.101 269.5 495.201 268.9 494.901 267.8C494.601 266.7 493.901 265.2 492.301 264C491.501 263.4 490.501 262.9 489.401 262.7C488.301 262.5 487.001 262.6 485.801 263C484.601 263.4 483.501 264.3 482.601 265.4C481.801 266.5 481.301 267.9 481.301 269.4C481.301 270.9 481.801 272.3 482.601 273.4C483.401 274.5 484.601 275.4 485.801 275.8C487.001 276.3 488.301 276.3 489.401 276.1C490.501 275.9 491.501 275.4 492.301 274.8C493.901 273.6 494.601 272.1 494.901 271C495.201 270.1 495.201 269.5 495.201 269.5C495.201 269.5 495.201 269.7 495.201 270C495.201 270.3 495.201 270.7 495.001 271.3C494.801 272.4 494.101 274 492.401 275.3C491.601 275.9 490.601 276.5 489.401 276.7C488.201 276.9 486.901 276.9 485.601 276.4C484.301 275.9 483.101 275.1 482.201 273.9C481.301 272.7 480.801 271.2 480.801 269.6C480.801 268 481.301 266.5 482.201 265.3C483.101 264.1 484.301 263.2 485.601 262.8C486.901 262.3 488.201 262.3 489.401 262.5C490.601 262.7 491.601 263.3 492.401 263.9C494.001 265.2 494.701 266.8 495.001 267.9C495.101 268.5 495.201 268.9 495.201 269.2C495.301 269.4 495.301 269.5 495.201 269.5Z" fill="#263238"/>
<path d="M421.601 241.1C421.701 241.1 422.301 253.7 422.901 269.4C423.501 285 423.801 297.7 423.701 297.7C423.601 297.7 423.001 285.1 422.401 269.4C421.801 253.8 421.401 241.1 421.601 241.1Z" fill="#263238"/>
<path d="M385.5 142.9C384.8 142.3 387.9 130.5 387.9 130.5C387.9 130.5 379.8 117.2 379.6 112.9C379.4 108.6 382.8 99.7998 382.8 99.7998L406.1 93.7998C406.1 93.7998 413.6 107.7 415.1 112.6C416.6 117.5 412.5 134.2 412.5 134.2L408.5 142.8C408.6 142.9 396.7 152.3 385.5 142.9Z" fill="#FFCEB5"/>
<path d="M379.6 115.5C379.6 115.5 378.6 113.7 377.1 110.3C375.6 106.8 373.8 103.4 377.1 101.4C379 100.2 380.6 100.8 380.6 100.8C380.6 100.8 380.1 97.8996 381.9 96.6996C383.7 95.5996 385.4 96.3996 385.4 96.3996C385.4 96.3996 384.8 92.1996 387.4 90.4996C390.6 88.2996 393.9 90.2996 393.9 90.2996C393.9 90.2996 391.9 72.0996 391.7 71.0996C391.1 67.5996 392.4 64.3996 395.9 65.2996C397.2 65.5996 397.9 66.9996 399.4 72.8996C400.9 78.7996 403.3 88.9996 403.3 88.9996C403.3 88.9996 407.4 96.0996 409.3 99.9996C411.2 103.9 415.1 112.7 415.4 115C416.2 121 412.7 129 412.7 129L387.9 130.4C387.9 130.5 380.6 117.2 379.6 115.5Z" fill="#FFCEB5"/>
<path d="M381.199 101.6C381.299 101.6 381.999 102.6 383.099 104.3C383.699 105.2 384.299 106.2 385.099 107.3C385.499 107.9 385.899 108.5 386.199 109.2C386.499 109.9 386.699 110.7 386.499 111.6C386.299 112.4 385.799 113.2 384.899 113.4C384.099 113.7 383.299 113.4 382.699 113.1C382.099 112.8 381.499 112.4 380.999 112.1C380.499 111.7 380.099 111.4 379.699 111.1C378.899 110.5 378.299 109.9 377.799 109.5C377.399 109.1 377.199 108.9 377.199 108.9C377.299 108.8 378.199 109.6 379.899 110.8C380.699 111.4 381.699 112.1 382.899 112.7C383.499 113 384.199 113.1 384.799 112.9C385.399 112.7 385.899 112.1 385.999 111.4C386.199 110.7 385.999 110 385.699 109.3C385.399 108.7 385.099 108.1 384.699 107.5C383.999 106.4 383.399 105.4 382.799 104.5C381.699 102.8 381.099 101.7 381.199 101.6Z" fill="#6F4C47"/>
<path d="M401.501 103.8C401.401 103.8 401.201 102 401.801 99.8998C402.301 97.7998 403.201 96.1999 403.301 96.2999C403.401 96.3999 402.701 97.9998 402.301 99.9998C401.801 102.1 401.701 103.8 401.501 103.8Z" fill="#6F4C47"/>
<path d="M411.3 109.099C409.1 106.799 406.1 105.399 403 104.799C399.9 104.099 396.7 104.199 393.6 104.399C391.1 104.599 388.2 105.299 387 107.499C385.8 109.799 387.2 112.799 389.5 114.199C391.7 115.499 394.5 115.599 397.1 115.399C399.7 115.199 402.3 114.699 404.9 115.099" fill="#FFCEB5"/>
<path d="M404.899 115.1C404.899 115.1 404.199 115 402.899 115C401.599 115 399.799 115.2 397.599 115.5C396.499 115.6 395.199 115.7 393.899 115.7C392.599 115.6 391.099 115.4 389.699 114.7C388.299 114 387.099 112.7 386.599 111.1C386.299 110.3 386.199 109.4 386.399 108.5C386.599 107.6 387.099 106.8 387.799 106.2C389.199 105 390.999 104.6 392.599 104.3C394.199 104.1 395.799 104 397.299 104C400.299 104 402.999 104.4 405.199 105.2C407.399 105.9 408.899 107 409.899 107.8C410.399 108.2 410.799 108.5 410.999 108.8C411.199 109 411.299 109.2 411.299 109.2C411.299 109.2 410.799 108.7 409.799 108C408.799 107.3 407.199 106.3 405.099 105.6C402.999 104.9 400.299 104.5 397.299 104.5C395.799 104.5 394.199 104.6 392.699 104.8C391.099 105 389.399 105.4 388.199 106.5C387.599 107 387.199 107.8 386.999 108.5C386.799 109.3 386.899 110.1 387.199 110.8C387.699 112.3 388.799 113.5 389.999 114.1C391.299 114.8 392.699 115 393.999 115.1C395.299 115.2 396.499 115.1 397.699 115C399.899 114.8 401.799 114.6 403.099 114.7C403.699 114.7 404.199 114.8 404.599 114.8C404.699 115 404.899 115.1 404.899 115.1Z" fill="#6F4C47"/>
<path d="M381.299 101.9C383.899 105.9 386.199 110.2 388.399 114.4C388.999 115.6 389.699 116.9 390.899 117.6C391.799 118.2 394.199 117.1 395.199 116.8L387.999 100.5" fill="#FFCEB5"/>
<path d="M388.099 100.6C388.099 100.6 388.399 101 388.699 101.8C389.099 102.7 389.599 103.8 390.299 105.2C391.599 108.1 393.399 112.2 395.499 116.8L395.599 117.1L395.299 117.2C394.499 117.5 393.699 117.8 392.799 118C392.399 118.1 392.099 118.2 391.699 118.2C391.499 118.2 391.299 118.2 391.099 118.1C390.899 118.1 390.699 117.9 390.599 117.8C389.999 117.4 389.499 116.8 389.199 116.3C388.499 115.1 387.899 114 387.399 112.9C386.299 110.7 385.199 108.8 384.299 107.2C383.399 105.6 382.699 104.3 382.099 103.4C381.599 102.5 381.299 102 381.299 102C381.299 102 381.699 102.4 382.299 103.3C382.899 104.2 383.699 105.4 384.599 107C385.499 108.6 386.599 110.5 387.799 112.7C388.399 113.8 388.899 115 389.599 116C389.999 116.5 390.399 117 390.899 117.4C391.299 117.8 391.999 117.6 392.699 117.5C393.499 117.3 394.399 117 395.199 116.7L394.999 117C392.999 112.4 391.199 108.3 389.999 105.4C389.399 104 388.899 102.8 388.599 101.9C388.199 101 388.099 100.6 388.099 100.6Z" fill="#6F4C47"/>
<path d="M386.199 95.6995C388.499 101.5 390.799 107.3 393.099 113C393.599 114.2 394.099 115.5 394.999 116.5C395.899 117.5 397.199 118.2 398.499 118C400.299 117.7 401.499 115.8 401.599 114C401.699 112.2 400.999 110.4 400.299 108.7C398.199 103.4 396.599 97.9995 395.299 92.4995" fill="#FFCEB5"/>
<path d="M395.2 92.5995C395.2 92.5995 395.3 92.7995 395.4 93.0995C395.5 93.4995 395.6 93.9995 395.8 94.5995C396.2 95.8995 396.7 97.8995 397.4 100.2C398.1 102.5 399.1 105.3 400.3 108.3C400.9 109.8 401.6 111.4 401.7 113.3C401.8 114.2 401.6 115.2 401.2 116.1C400.8 117 400.1 117.8 399.1 118.1C398.1 118.5 397 118.3 396.2 117.9C395.3 117.5 394.7 116.7 394.2 116C393.2 114.4 392.7 112.8 392.1 111.3C390.9 108.3 389.9 105.6 388.9 103.2C388 101 387.3 99.0995 386.8 97.7995C386.6 97.1995 386.4 96.6995 386.3 96.2995C386.2 95.9995 386.1 95.7995 386.1 95.7995C386.1 95.7995 386.2 95.9995 386.4 96.2995C386.6 96.6995 386.8 97.1995 387 97.7995C387.6 99.0995 388.3 101 389.2 103.2C390.1 105.5 391.2 108.2 392.5 111.2C393.1 112.7 393.6 114.4 394.6 115.8C395.1 116.5 395.7 117.1 396.5 117.5C397.3 117.9 398.2 118 399 117.7C399.8 117.4 400.4 116.7 400.8 115.9C401.2 115.1 401.3 114.3 401.3 113.4C401.2 111.7 400.5 110.1 399.9 108.6C398.7 105.6 397.8 102.8 397.1 100.4C396.4 97.9995 395.9 96.0995 395.6 94.6995C395.5 93.9995 395.3 93.4995 395.3 93.0995C395.2 92.7995 395.2 92.5995 395.2 92.5995Z" fill="#6F4C47"/>
<path d="M386.7 136.3C386.7 136.3 370.9 182.9 370.2 185.2C369.6 187.5 373.3 204.1 380.2 208.1C387.1 212.1 400.4 195.6 402.1 189.6C403.8 183.6 402.1 173.4 402.1 173.4L412.8 133.2" fill="#FFCEB5"/>
<path d="M402.1 129.1C402.1 129.2 401.5 129.2 400.6 128.9C399.7 128.6 398.5 128.1 397.5 127.1C396.4 126.1 395.8 125 395.4 124.1C395.1 123.2 395 122.6 395.1 122.6C395.3 122.5 395.8 124.8 397.9 126.7C399.9 128.6 402.2 128.9 402.1 129.1Z" fill="#6F4C47"/>
<path d="M686 355.5C686 355.667 536.257 356 351.5 356C166.743 356 17 355.833 17 355.5C17 355.333 166.743 355 351.5 355C536.257 355.167 686 355.333 686 355.5Z" fill="#263238"/>
<path d="M23.2581 255.528L0 314.681L87.7275 349.174L110.986 290.022L23.2581 255.528Z" fill="#EBEBEB"/>
<path d="M110.988 290.85C110.988 290.85 110.629 291.066 109.84 291.281C108.979 291.568 107.903 291.998 106.54 292.429C103.599 293.433 99.4375 294.868 94.4156 296.59C84.0846 300.105 69.8795 304.84 54.1679 310.149L53.8092 310.293L53.6657 310.006C53.5222 309.79 53.3787 309.503 53.2352 309.288C44.9131 294.724 37.3801 281.524 31.8559 271.91C29.2014 267.175 27.0491 263.301 25.4708 260.503C24.7534 259.212 24.1795 258.207 23.749 257.418C23.3903 256.701 23.1751 256.342 23.1751 256.27C23.1751 256.27 23.4621 256.629 23.8925 257.275C24.323 258.064 24.9686 259.068 25.7578 260.288C27.3361 263.014 29.6319 266.817 32.3581 271.552C37.9541 281.165 45.5588 294.294 53.9527 308.786C54.0961 309.073 54.2397 309.288 54.3831 309.503L53.8809 309.288C69.5926 304.123 83.7976 299.388 94.2003 295.944C99.2941 294.294 103.455 292.931 106.397 291.998C107.76 291.568 108.908 291.209 109.697 290.994C110.629 290.922 110.988 290.85 110.988 290.85Z" fill="#E0E0E0"/>
<path d="M0.0739389 315.458C-0.0695465 315.243 9.7592 309.719 21.9555 303.118C34.1517 296.518 44.124 291.353 44.1957 291.568C44.3392 291.783 34.5104 297.307 22.3142 303.908C10.1179 310.508 0.145682 315.673 0.0739389 315.458Z" fill="#E0E0E0"/>
<path d="M73.6104 302.329C73.8256 302.257 77.1975 312.875 81.0716 326.004C85.0175 339.133 87.9589 349.894 87.7437 349.966C87.5285 350.038 84.1566 339.42 80.2824 326.291C76.3366 313.162 73.3951 302.401 73.6104 302.329Z" fill="#E0E0E0"/>
<path d="M201.698 211L150 233.516L165.183 268.376L216.881 245.86L201.698 211Z" fill="#EBEBEB"/>
<path d="M202.041 211.363C202.041 211.363 201.969 211.578 201.754 212.008C201.539 212.51 201.252 213.084 200.893 213.874C200.104 215.524 198.956 217.891 197.521 220.761C194.652 226.644 190.634 234.607 186.258 243.503L186.186 243.719L185.971 243.647C185.827 243.575 185.684 243.575 185.469 243.503C175.783 240.849 167.031 238.481 160.646 236.759C157.489 235.899 154.978 235.181 153.113 234.679C152.252 234.464 151.606 234.248 151.104 234.105C150.673 233.962 150.387 233.89 150.387 233.89C150.387 233.89 150.673 233.89 151.104 234.033C151.606 234.177 152.324 234.32 153.184 234.535C155.05 235.038 157.561 235.683 160.717 236.473C167.103 238.194 175.927 240.49 185.612 243.073C185.756 243.145 185.971 243.145 186.114 243.216L185.827 243.36C190.275 234.535 194.293 226.5 197.234 220.689C198.669 217.819 199.889 215.524 200.75 213.874C201.18 213.084 201.467 212.51 201.754 212.008C201.898 211.578 202.041 211.363 202.041 211.363Z" fill="#E0E0E0"/>
<path d="M165.524 268.757C165.381 268.685 167.174 262.228 169.542 254.336C171.909 246.373 173.918 239.988 174.062 240.06C174.205 240.131 172.412 246.588 170.044 254.48C167.677 262.372 165.668 268.757 165.524 268.757Z" fill="#E0E0E0"/>
<path d="M191.065 232.096C191.136 231.953 197.019 235.038 204.265 238.983C211.511 242.858 217.251 246.158 217.179 246.301C217.107 246.445 211.224 243.36 203.978 239.414C196.804 235.468 190.993 232.168 191.065 232.096Z" fill="#E0E0E0"/>
</svg>
