<svg width="480" height="480" viewBox="0 0 480 480" fill="none" xmlns="http://www.w3.org/2000/svg">
<path d="M288.942 31.765L397.565 172.907L105.468 100.339L268.061 26.5163C275.364 23.2074 284.035 25.3753 288.942 31.765Z" fill="#EBEBEB"/>
<path d="M399.048 173.82L289.398 31.3085C284.378 24.6907 275.478 22.4087 267.833 25.9458L103.529 100.339L399.048 173.82ZM275.25 25.6035C280.27 25.6035 285.176 27.8855 288.371 32.1072L395.968 171.88L107.18 100.111L268.289 27.0868C270.571 26.0599 272.968 25.6035 275.25 25.6035Z" fill="#E0E0E0"/>
<path d="M73.8627 273.657L343.253 340.634C349.757 342.232 356.375 338.238 358.086 331.734L397.565 172.907L104.442 99.9968L64.9629 258.824C63.2514 265.442 67.2448 272.06 73.8627 273.657Z" fill="#F0F0F0"/>
<path d="M122.469 108.668L224.019 212.386L377.483 177.927L395.055 96.4598C397.109 87.674 391.746 79.0024 382.96 76.8345L160.921 21.61C152.135 19.4421 143.236 24.8048 141.068 33.5905L122.469 108.668Z" fill="white"/>
<path d="M237.939 204.285L358.543 330.365C356.717 337.554 349.415 342.003 342.227 340.178L74.8896 273.657C67.7013 271.832 63.2514 264.529 65.077 257.341L65.3052 256.314L222.992 200.747C228.24 198.922 234.059 200.291 237.939 204.285Z" fill="#E0E0E0"/>
<path d="M276.432 88.8476L363.349 110.469L361.146 119.327L274.228 97.7054L276.432 88.8476Z" fill="#E0E0E0"/>
<path d="M164.987 85.055L357.756 133.009L355.277 142.974L162.508 95.0201L164.987 85.055Z" fill="#E0E0E0"/>
<path d="M158.844 109.456L351.612 157.41L349.134 167.375L156.365 119.421L158.844 109.456Z" fill="#E0E0E0"/>
<path d="M154.874 141.986L160.921 148.033L322.715 190.25L343.824 185.344L344.622 183.062L152.478 135.254L151.679 138.563L154.874 141.986Z" fill="#E0E0E0"/>
<path d="M196.292 184.089L269.088 202.231L291.452 197.096L182.486 170.054L196.292 184.089Z" fill="#E0E0E0"/>
<path d="M242.389 208.849C242.389 208.849 242.503 208.963 242.617 209.191C242.845 209.419 243.073 209.761 243.53 210.104C244.329 210.902 245.47 212.158 246.839 213.755C249.805 216.836 254.027 221.4 259.276 226.876C269.773 237.944 284.378 253.234 300.466 270.006C316.668 286.779 331.501 301.84 342.227 312.68C347.589 318.043 352.039 322.378 355.12 325.459C356.603 326.942 357.858 328.083 358.657 328.882C358.999 329.224 359.342 329.567 359.57 329.795C359.798 330.023 359.912 330.137 359.912 330.023C359.912 330.023 359.798 329.909 359.57 329.681C359.342 329.453 358.999 329.11 358.657 328.768C357.858 327.969 356.717 326.714 355.234 325.231C352.153 322.15 347.817 317.814 342.569 312.338C331.843 301.498 317.124 286.323 300.922 269.55C284.834 252.777 270.115 237.488 259.504 226.534C254.255 221.057 249.919 216.607 246.953 213.527C245.47 212.043 244.329 210.788 243.53 209.99C243.188 209.647 242.845 209.305 242.617 209.077C242.503 208.963 242.389 208.849 242.389 208.849Z" fill="#FAFAFA"/>
<path d="M65.3052 256.314C65.4193 256.428 98.9648 244.79 140.383 230.299C181.802 215.695 215.347 203.828 215.233 203.6C215.119 203.486 181.573 215.124 140.155 229.615C98.8506 244.22 65.3052 256.2 65.3052 256.314Z" fill="#FAFAFA"/>
<path d="M117.563 103.762C117.563 103.762 117.677 103.876 117.791 103.99C118.02 104.219 118.248 104.447 118.476 104.789C119.161 105.474 120.073 106.501 121.214 107.756C123.61 110.38 127.033 114.145 131.255 118.709C139.813 127.951 151.679 140.502 165.029 154.309C178.379 168.115 190.587 180.323 199.487 189.223C203.937 193.559 207.588 197.096 210.098 199.606C211.353 200.747 212.266 201.774 213.065 202.459C213.407 202.801 213.635 203.029 213.864 203.144C214.092 203.258 214.092 203.372 214.092 203.372C214.092 203.372 213.978 203.258 213.864 203.144C213.635 202.915 213.407 202.687 213.179 202.345C212.494 201.66 211.582 200.633 210.327 199.492C207.816 196.982 204.279 193.331 199.829 188.995C190.93 180.095 178.835 167.772 165.485 153.966C152.135 140.16 140.269 127.609 131.597 118.481C127.262 113.917 123.839 110.266 121.328 107.642C120.187 106.387 119.161 105.474 118.59 104.675C118.248 104.333 118.02 104.104 117.905 103.876C117.677 103.762 117.677 103.762 117.563 103.762Z" fill="#FAFAFA"/>
<path d="M242.389 208.849C242.389 208.849 242.503 208.849 242.845 208.735C243.187 208.62 243.53 208.62 243.986 208.506C245.013 208.278 246.61 207.822 248.55 207.365C252.43 206.338 258.135 204.969 265.095 203.372C279.129 200.063 298.526 195.727 320.091 191.163C341.542 186.485 361.053 182.149 375.087 178.726C382.047 177.015 387.752 175.531 391.632 174.504C393.572 173.934 395.055 173.592 396.082 173.249C396.538 173.135 396.995 173.021 397.223 172.907C397.451 172.793 397.565 172.793 397.565 172.793C397.565 172.793 397.451 172.793 397.109 172.907C396.766 173.021 396.424 173.021 395.968 173.135C394.941 173.363 393.343 173.82 391.404 174.276C387.524 175.303 381.819 176.672 374.859 178.27C360.825 181.579 341.428 185.914 319.863 190.479C298.412 195.157 278.901 199.492 264.866 202.915C257.906 204.627 252.201 206.11 248.322 207.137C246.382 207.708 244.899 208.05 243.872 208.392C243.416 208.506 242.959 208.62 242.731 208.735C242.503 208.849 242.389 208.849 242.389 208.849Z" fill="#FAFAFA"/>
<path d="M122.469 108.668C122.469 108.668 122.583 108.326 122.812 107.527C123.04 106.729 123.268 105.702 123.61 104.333C124.295 101.48 125.436 97.2583 126.805 91.8956C129.544 81.0561 133.423 65.4244 138.329 46.1414C138.9 43.7453 139.584 41.2351 140.155 38.7249C140.497 37.4698 140.839 36.2147 141.068 34.8455C141.182 34.1609 141.41 33.5904 141.638 32.9058C141.752 32.2212 142.095 31.6507 142.323 31.0802C143.35 28.57 145.175 26.4021 147.343 24.6906C149.625 23.0932 152.25 21.8381 155.102 21.6099C156.585 21.3817 157.955 21.4958 159.438 21.724C160.921 21.9522 162.29 22.4086 163.774 22.7509C166.74 23.4355 169.707 24.2342 172.673 25.0329C178.721 26.5162 184.996 28.1136 191.386 29.711C216.944 36.1006 245.127 43.0607 274.565 50.4772C304.117 57.7797 332.186 64.7398 357.858 71.1294C364.248 72.7268 370.523 74.2101 376.571 75.8075C378.054 76.1498 379.537 76.6062 381.135 76.9485C382.618 77.2908 384.101 77.6331 385.47 78.3177C386.84 78.8882 388.095 79.6869 389.236 80.5997C390.377 81.5125 391.404 82.6535 392.202 83.7945C393.115 84.9355 393.686 86.3047 394.256 87.5598C394.713 88.929 395.055 90.2982 395.169 91.6674C395.511 94.4058 394.713 97.1442 394.142 99.7685C393.001 105.131 391.86 110.152 390.833 115.058C386.726 134.569 383.303 150.315 381.021 161.269C379.88 166.745 378.967 170.967 378.396 173.82C378.054 175.303 377.826 176.33 377.712 177.129C377.598 177.813 377.483 178.27 377.483 178.27C377.483 178.27 377.598 177.927 377.712 177.129C377.826 176.33 378.168 175.303 378.396 173.82C379.081 170.967 379.994 166.745 381.135 161.269C383.531 150.315 386.954 134.569 391.175 115.172C392.202 110.266 393.343 105.245 394.484 99.8826C395.055 97.2583 395.854 94.5199 395.511 91.5533C395.397 90.07 395.055 88.7008 394.598 87.3316C394.028 85.9624 393.457 84.5932 392.545 83.4522C391.632 82.1971 390.719 81.0561 389.464 80.1433C388.323 79.1164 386.954 78.4318 385.585 77.7472C384.215 77.0626 382.618 76.8344 381.135 76.378C379.651 76.0357 378.168 75.5793 376.571 75.237C370.523 73.7537 364.248 72.1563 357.858 70.5589C332.3 64.1693 304.117 57.2092 274.565 49.7927C245.013 42.4902 216.944 35.5301 191.272 29.1405C184.882 27.5431 178.607 26.0598 172.559 24.4624C169.479 23.6637 166.512 22.9791 163.545 22.2945C162.062 21.9522 160.579 21.4958 159.096 21.2676C157.612 21.0394 156.129 21.0394 154.646 21.2676C151.679 21.6099 148.941 22.865 146.659 24.4624C144.377 26.1739 142.551 28.4559 141.524 30.9661C141.296 31.6507 140.954 32.2212 140.84 32.9058C140.611 33.5904 140.497 34.1609 140.269 34.8455C139.927 36.1006 139.584 37.4698 139.356 38.7249C138.786 41.2351 138.101 43.7453 137.531 46.1414C132.738 65.5385 128.859 81.1702 126.235 92.0097C124.865 97.3725 123.839 101.594 123.154 104.447C122.812 105.816 122.583 106.957 122.355 107.641C122.469 108.326 122.469 108.668 122.469 108.668Z" fill="#E0E0E0"/>
<path d="M7.79849 466.487C7.79849 466.715 110.945 466.829 238.281 466.829C365.617 466.829 468.763 466.715 468.763 466.487C468.763 466.259 365.617 466.145 238.281 466.145C111.059 466.145 7.79849 466.373 7.79849 466.487Z" fill="#263238"/>
<path d="M250.034 48.5376L261.33 57.0951L260.759 73.5255L271.142 65.3103L276.733 70.2166L298.526 43.4031L250.034 48.5376Z" fill="#009ECD"/>
<path d="M265.552 60.5181C265.552 60.9745 260.759 73.4114 260.759 73.4114L271.143 65.1962L265.552 60.5181Z" fill="#009ECD"/>
<g opacity="0.3">
<path opacity="0.3" d="M265.552 60.5181C265.552 60.9745 260.759 73.4114 260.759 73.4114L271.143 65.1962L265.552 60.5181Z" fill="black"/>
</g>
<path d="M298.526 43.4031L265.551 60.5181L260.759 73.5255L261.33 57.0951L298.526 43.4031Z" fill="#009ECD"/>
<path opacity="0.1" d="M298.526 43.4031L265.551 60.5181L260.759 73.5255L261.33 57.0951L298.526 43.4031Z" fill="black"/>
<path d="M207.246 264.757C207.246 264.872 208.615 264.757 210.213 264.301C211.81 263.959 213.065 263.502 213.065 263.274C213.065 263.16 211.696 263.274 210.099 263.73C208.387 264.187 207.132 264.643 207.246 264.757Z" fill="#263238"/>
<path d="M197.89 267.039C197.89 267.154 198.689 267.154 199.716 266.925C200.628 266.697 201.427 266.355 201.427 266.241C201.427 266.127 200.628 266.127 199.601 266.355C198.574 266.583 197.776 266.925 197.89 267.039Z" fill="#263238"/>
<path d="M236.342 71.3576C236.342 71.4717 237.711 71.2435 239.309 70.9012C240.906 70.5589 242.161 70.2166 242.161 69.9884C242.161 69.8743 240.792 69.8743 239.194 70.3307C237.597 70.673 236.342 71.1294 236.342 71.3576Z" fill="#263238"/>
<path d="M225.274 76.0357C225.388 76.1498 226.644 75.5793 228.013 74.8947C229.496 74.2101 230.637 73.5255 230.637 73.2973C230.523 73.1832 229.268 73.5255 227.784 74.3242C226.301 75.1229 225.274 75.9216 225.274 76.0357Z" fill="#263238"/>
<path d="M215.804 83.3381C215.918 83.4522 216.945 82.6535 218.2 81.5125C219.455 80.4856 220.482 79.5728 220.368 79.3446C220.254 79.2305 219.113 79.9151 217.858 81.0561C216.489 82.1971 215.69 83.224 215.804 83.3381Z" fill="#263238"/>
<path d="M208.501 92.9226C208.616 93.0367 209.414 91.8957 210.327 90.5265C211.24 89.1573 211.924 88.0163 211.81 87.9022C211.696 87.7881 210.669 88.815 209.757 90.1842C208.844 91.5534 208.273 92.8085 208.501 92.9226Z" fill="#263238"/>
<path d="M204.28 104.104C204.508 104.104 204.85 102.849 205.307 101.252C205.763 99.6545 206.105 98.3994 205.877 98.2853C205.763 98.1712 205.078 99.4263 204.622 101.024C204.28 102.735 204.166 104.104 204.28 104.104Z" fill="#263238"/>
<path d="M203.709 116.085C203.938 116.085 203.824 114.716 203.824 113.118C203.824 111.521 203.709 110.152 203.595 110.152C203.481 110.152 203.253 111.521 203.253 113.118C203.253 114.83 203.481 116.085 203.709 116.085Z" fill="#263238"/>
<path d="M206.79 127.723C206.904 127.609 206.448 126.354 205.991 124.871C205.421 123.273 204.965 122.018 204.85 122.132C204.736 122.132 204.85 123.501 205.421 125.099C205.991 126.582 206.676 127.723 206.79 127.723Z" fill="#263238"/>
<path d="M213.75 137.422C213.864 137.307 212.951 136.281 211.925 135.025C210.898 133.77 209.985 132.743 209.871 132.858C209.757 132.972 210.441 134.113 211.468 135.482C212.609 136.737 213.636 137.536 213.75 137.422Z" fill="#263238"/>
<path d="M223.905 143.925C224.019 143.811 222.764 143.127 221.281 142.328C219.797 141.529 218.656 140.959 218.542 141.073C218.428 141.187 219.455 142.1 221.052 142.898C222.422 143.697 223.791 144.039 223.905 143.925Z" fill="#263238"/>
<path d="M235.543 146.436C235.543 146.208 234.174 146.093 232.576 145.865C230.979 145.637 229.61 145.523 229.61 145.637C229.61 145.751 230.865 146.208 232.576 146.436C234.174 146.664 235.543 146.55 235.543 146.436Z" fill="#263238"/>
<path d="M247.295 144.153C247.181 144.039 245.926 144.382 244.329 144.838C242.731 145.294 241.476 145.637 241.476 145.865C241.476 145.979 242.846 145.979 244.443 145.409C246.154 145.066 247.41 144.382 247.295 144.153Z" fill="#263238"/>
<path d="M255.625 135.938C255.511 135.938 254.94 137.079 254.028 138.449C253.115 139.818 252.202 140.731 252.316 140.959C252.43 141.073 253.571 140.274 254.484 138.905C255.511 137.422 255.853 135.938 255.625 135.938Z" fill="#263238"/>
<path d="M250.604 126.582C250.604 126.81 251.86 127.153 253.115 128.065C254.37 128.978 255.168 130.119 255.283 130.005C255.397 130.005 254.94 128.522 253.457 127.495C252.088 126.582 250.604 126.468 250.604 126.582Z" fill="#263238"/>
<path d="M240.221 130.918C240.335 131.032 241.134 129.891 242.275 128.75C243.416 127.609 244.671 127.153 244.557 126.924C244.557 126.81 243.074 127.039 241.819 128.294C240.678 129.435 240.107 130.804 240.221 130.918Z" fill="#263238"/>
<path d="M239.879 142.556C239.993 142.442 239.651 141.187 239.308 139.59C238.966 137.992 238.966 136.623 238.738 136.623C238.624 136.623 238.396 137.992 238.738 139.704C238.966 141.415 239.765 142.556 239.879 142.556Z" fill="#263238"/>
<path d="M247.638 151.456C247.752 151.342 246.725 150.429 245.47 149.402C244.215 148.375 243.188 147.462 243.074 147.577C242.96 147.691 243.758 148.832 245.014 149.859C246.383 151 247.638 151.57 247.638 151.456Z" fill="#263238"/>
<path d="M258.363 157.047C258.477 156.933 257.222 156.248 255.739 155.564C254.256 154.879 253.001 154.423 252.887 154.537C252.772 154.651 254.028 155.335 255.511 156.02C256.994 156.705 258.249 157.161 258.363 157.047Z" fill="#263238"/>
<path d="M269.089 162.524C269.203 162.41 268.062 161.611 266.693 160.698C265.209 159.899 263.954 159.443 263.84 159.557C263.726 159.785 264.867 160.47 266.35 161.269C267.72 162.067 268.975 162.638 269.089 162.524Z" fill="#263238"/>
<path d="M278.217 170.283C278.331 170.168 277.532 169.027 276.391 167.886C275.25 166.745 274.109 165.947 273.995 166.061C273.881 166.175 274.794 167.202 275.935 168.343C277.076 169.484 277.989 170.397 278.217 170.283Z" fill="#263238"/>
<path d="M285.063 180.209C285.177 180.095 284.72 178.84 283.808 177.471C282.895 175.988 281.982 175.075 281.868 175.075C281.754 175.189 282.438 176.33 283.237 177.699C284.15 179.182 284.949 180.209 285.063 180.209Z" fill="#263238"/>
<path d="M289.399 191.391C289.513 191.391 289.399 190.022 288.828 188.425C288.258 186.827 287.687 185.572 287.459 185.686C287.345 185.8 287.687 187.055 288.143 188.653C288.828 190.136 289.284 191.391 289.399 191.391Z" fill="#263238"/>
<path d="M290.996 203.258C291.11 203.258 291.338 201.888 291.224 200.177C291.11 198.465 290.768 197.21 290.654 197.21C290.425 197.21 290.54 198.579 290.654 200.177C290.654 201.888 290.882 203.258 290.996 203.258Z" fill="#263238"/>
<path d="M289.398 215.124C289.513 215.124 289.969 213.869 290.311 212.272C290.654 210.674 290.768 209.305 290.539 209.305C290.311 209.305 290.083 210.56 289.627 212.157C289.398 213.755 289.284 215.124 289.398 215.124Z" fill="#263238"/>
<path d="M284.835 226.192C284.949 226.306 285.747 225.165 286.546 223.681C287.345 222.198 287.687 220.829 287.573 220.829C287.459 220.715 286.774 221.97 286.09 223.453C285.177 224.937 284.606 226.192 284.835 226.192Z" fill="#263238"/>
<path d="M277.532 235.89C277.646 236.004 278.673 235.091 279.814 233.836C280.955 232.581 281.64 231.326 281.412 231.326C281.297 231.212 280.385 232.239 279.244 233.494C278.331 234.635 277.418 235.776 277.532 235.89Z" fill="#263238"/>
<path d="M268.29 243.535C268.404 243.649 269.659 243.078 270.914 242.052C272.283 241.025 273.196 240.112 273.082 239.998C272.968 239.884 271.827 240.568 270.572 241.595C269.317 242.508 268.176 243.307 268.29 243.535Z" fill="#263238"/>
<path d="M257.451 248.669C257.451 248.784 258.82 248.555 260.417 247.871C262.015 247.3 263.156 246.502 263.041 246.387C262.927 246.273 261.672 246.73 260.189 247.3C258.706 247.985 257.451 248.555 257.451 248.669Z" fill="#263238"/>
<path d="M251.403 250.153C251.403 250.267 251.517 250.495 251.517 250.495C251.631 250.495 251.631 250.381 251.517 250.153C251.517 250.039 251.403 249.811 251.403 249.811C251.403 249.925 251.403 250.039 251.403 250.153Z" fill="#263238"/>
<path d="M260.149 220.374L272.616 216.279L275.18 224.084L262.713 228.18L260.149 220.374Z" fill="#009ECD"/>
<g opacity="0.3">
<path opacity="0.3" d="M260.149 220.374L272.616 216.279L275.18 224.084L262.713 228.18L260.149 220.374Z" fill="black"/>
</g>
<path d="M260.189 220.373C260.075 220.487 263.383 221.856 267.377 223.339L267.605 223.453L267.719 223.225C267.833 223.111 267.833 222.997 267.947 222.997C270.686 219.46 272.74 216.379 272.626 216.265C272.511 216.151 270.115 219.003 267.491 222.541C267.377 222.655 267.377 222.769 267.263 222.769L267.605 222.655C263.612 221.285 260.303 220.144 260.189 220.373Z" fill="#009ECD"/>
<g opacity="0.1">
<g opacity="0.1">
<path opacity="0.1" d="M260.189 220.373C260.075 220.487 263.383 221.856 267.377 223.339L267.605 223.453L267.719 223.225C267.833 223.111 267.833 222.997 267.947 222.997C270.686 219.46 272.74 216.379 272.626 216.265C272.511 216.151 270.115 219.003 267.491 222.541C267.377 222.655 267.377 222.769 267.263 222.769L267.605 222.655C263.612 221.285 260.303 220.144 260.189 220.373Z" fill="black"/>
</g>
</g>
<path d="M269.088 221.057C268.974 221.171 270.344 221.97 272.055 222.883C273.767 223.681 275.25 224.252 275.25 224.138C275.25 224.024 273.995 223.225 272.283 222.312C270.572 221.399 269.203 220.829 269.088 221.057Z" fill="#009ECD"/>
<g opacity="0.1">
<g opacity="0.1">
<path opacity="0.1" d="M269.088 221.057C268.974 221.171 270.344 221.97 272.055 222.883C273.767 223.681 275.25 224.252 275.25 224.138C275.25 224.024 273.995 223.225 272.283 222.312C270.572 221.399 269.203 220.829 269.088 221.057Z" fill="black"/>
</g>
</g>
<path d="M262.471 228.132C262.585 228.246 263.384 226.876 264.068 225.279C264.867 223.568 265.323 222.084 265.095 222.084C264.867 222.084 264.182 223.339 263.498 224.937C262.813 226.648 262.357 228.132 262.471 228.132Z" fill="#009ECD"/>
<g opacity="0.1">
<g opacity="0.1">
<path opacity="0.1" d="M262.471 228.132C262.585 228.246 263.384 226.876 264.068 225.279C264.867 223.568 265.323 222.084 265.095 222.084C264.867 222.084 264.182 223.339 263.498 224.937C262.813 226.648 262.357 228.132 262.471 228.132Z" fill="black"/>
</g>
</g>
<path d="M209.381 250.814L241.469 240.273L248.022 260.22L215.933 270.761L209.381 250.814Z" fill="#009ECD"/>
<path d="M209.3 250.723C209.3 250.723 209.756 250.952 210.783 251.408C211.81 251.864 213.179 252.321 214.777 253.005C218.2 254.261 222.878 256.086 228.127 258.026L228.355 258.14L228.469 257.912C228.583 257.684 228.811 257.455 229.039 257.227C232.577 252.663 235.657 248.441 237.939 245.361C238.966 243.877 239.879 242.622 240.564 241.71C241.134 240.797 241.476 240.34 241.476 240.34C241.476 240.34 241.02 240.797 240.335 241.595C239.651 242.508 238.624 243.649 237.597 245.133C235.315 248.099 232.006 252.321 228.583 256.885C228.355 257.113 228.241 257.341 228.013 257.569L228.355 257.455C223.106 255.516 218.314 253.804 214.891 252.663C213.294 252.093 211.924 251.636 210.783 251.294C209.871 250.838 209.3 250.723 209.3 250.723Z" fill="#009ECD"/>
<g opacity="0.2">
<g opacity="0.2">
<path opacity="0.2" d="M209.3 250.723C209.3 250.723 209.756 250.952 210.783 251.408C211.81 251.864 213.179 252.321 214.777 253.005C218.2 254.261 222.878 256.086 228.127 258.026L228.355 258.14L228.469 257.912C228.583 257.684 228.811 257.455 229.039 257.227C232.577 252.663 235.657 248.441 237.939 245.361C238.966 243.877 239.879 242.622 240.564 241.71C241.134 240.797 241.476 240.34 241.476 240.34C241.476 240.34 241.02 240.797 240.335 241.595C239.651 242.508 238.624 243.649 237.597 245.133C235.315 248.099 232.006 252.321 228.583 256.885C228.355 257.113 228.241 257.341 228.013 257.569L228.355 257.455C223.106 255.516 218.314 253.804 214.891 252.663C213.294 252.093 211.924 251.636 210.783 251.294C209.871 250.838 209.3 250.723 209.3 250.723Z" fill="black"/>
</g>
</g>
<path d="M232.12 252.435C232.006 252.549 235.543 254.489 239.879 256.543C244.215 258.711 247.866 260.308 247.98 260.08C248.094 259.966 244.557 258.026 240.221 255.972C235.771 253.918 232.234 252.321 232.12 252.435Z" fill="#009ECD"/>
<g opacity="0.2">
<g opacity="0.2">
<path opacity="0.2" d="M232.12 252.435C232.006 252.549 235.543 254.489 239.879 256.543C244.215 258.711 247.866 260.308 247.98 260.08C248.094 259.966 244.557 258.026 240.221 255.972C235.771 253.918 232.234 252.321 232.12 252.435Z" fill="black"/>
</g>
</g>
<path d="M215.347 270.919C215.462 271.033 217.173 267.61 218.999 263.274C220.824 258.939 222.193 255.516 222.079 255.401C221.965 255.287 220.254 258.71 218.428 263.046C216.488 267.268 215.119 270.805 215.347 270.919Z" fill="#009ECD"/>
<g opacity="0.2">
<g opacity="0.2">
<path opacity="0.2" d="M215.347 270.919C215.462 271.033 217.173 267.61 218.999 263.274C220.824 258.939 222.193 255.516 222.079 255.401C221.965 255.287 220.254 258.71 218.428 263.046C216.488 267.268 215.119 270.805 215.347 270.919Z" fill="black"/>
</g>
</g>
<path d="M239.651 245.132C241.933 246.73 245.014 246.273 246.611 244.105C248.208 241.823 247.752 238.743 245.584 237.145C243.302 235.548 240.221 236.004 238.624 238.172C236.912 240.34 237.369 243.535 239.651 245.132Z" fill="#263238"/>
<path d="M239.423 240.112C239.423 240.226 240.906 241.139 242.732 242.166C242.96 242.28 243.302 242.508 243.53 242.622L243.644 242.736L243.759 242.622C244.671 241.139 245.242 239.998 245.128 239.884C245.014 239.884 244.329 240.911 243.416 242.394L243.644 242.28C243.416 242.166 243.074 241.938 242.846 241.824C241.134 240.911 239.537 240.112 239.423 240.112Z" fill="white"/>
<path d="M229.929 223.882L246.732 218.362L250.151 228.769L233.348 234.289L229.929 223.882Z" fill="#009ECD"/>
<g opacity="0.2">
<path opacity="0.2" d="M229.929 223.882L246.732 218.362L250.151 228.769L233.348 234.289L229.929 223.882Z" fill="black"/>
</g>
<path d="M229.952 223.796C229.952 223.796 230.18 223.91 230.751 224.138C231.321 224.366 232.006 224.594 232.805 224.937C234.63 225.621 237.026 226.534 239.765 227.561H239.879L239.993 227.447C240.107 227.333 240.221 227.219 240.221 227.104C242.047 224.708 243.644 222.426 244.899 220.829C245.47 220.03 245.926 219.46 246.268 218.889C246.611 218.433 246.725 218.205 246.725 218.205C246.725 218.205 246.497 218.433 246.154 218.889C245.812 219.346 245.241 220.03 244.671 220.715C243.416 222.312 241.818 224.48 239.993 226.876C239.879 226.99 239.765 227.104 239.765 227.219H239.993C237.254 226.192 234.744 225.279 232.919 224.708C232.12 224.366 231.321 224.138 230.751 224.024C230.18 223.91 229.952 223.796 229.952 223.796Z" fill="#009ECD"/>
<g opacity="0.2">
<g opacity="0.2">
<path opacity="0.2" d="M229.952 223.796C229.952 223.796 230.18 223.91 230.751 224.138C231.321 224.366 232.006 224.594 232.805 224.937C234.63 225.621 237.026 226.534 239.765 227.561H239.879L239.993 227.447C240.107 227.333 240.221 227.219 240.221 227.104C242.047 224.708 243.644 222.426 244.899 220.829C245.47 220.03 245.926 219.46 246.268 218.889C246.611 218.433 246.725 218.205 246.725 218.205C246.725 218.205 246.497 218.433 246.154 218.889C245.812 219.346 245.241 220.03 244.671 220.715C243.416 222.312 241.818 224.48 239.993 226.876C239.879 226.99 239.765 227.104 239.765 227.219H239.993C237.254 226.192 234.744 225.279 232.919 224.708C232.12 224.366 231.321 224.138 230.751 224.024C230.18 223.91 229.952 223.796 229.952 223.796Z" fill="#009ECD"/>
</g>
</g>
<path d="M241.933 224.708C241.933 224.823 243.758 225.735 246.04 226.876C248.322 228.017 250.262 228.816 250.262 228.702C250.262 228.588 248.436 227.675 246.154 226.534C243.872 225.507 241.933 224.594 241.933 224.708Z" fill="#009ECD"/>
<g opacity="0.2">
<g opacity="0.2">
<path opacity="0.2" d="M241.933 224.708C241.933 224.823 243.758 225.735 246.04 226.876C248.322 228.017 250.262 228.816 250.262 228.702C250.262 228.588 248.436 227.675 246.154 226.534C243.872 225.507 241.933 224.594 241.933 224.708Z" fill="#009ECD"/>
</g>
</g>
<path d="M233.033 234.407C233.147 234.407 233.946 232.695 234.972 230.413C235.999 228.131 236.684 226.306 236.57 226.306C236.456 226.306 235.657 228.017 234.63 230.299C233.717 232.467 233.033 234.407 233.033 234.407Z" fill="#009ECD"/>
<g opacity="0.2">
<g opacity="0.2">
<path opacity="0.2" d="M233.033 234.407C233.147 234.407 233.946 232.695 234.972 230.413C235.999 228.131 236.684 226.306 236.57 226.306C236.456 226.306 235.657 228.017 234.63 230.299C233.717 232.467 233.033 234.407 233.033 234.407Z" fill="#009ECD"/>
</g>
</g>
<path d="M364.933 92.9227C368.128 105.702 381.135 113.347 393.914 110.152C406.693 106.957 414.338 93.9496 411.143 81.1703C407.949 68.3911 394.941 60.7464 382.162 63.9412C369.497 67.136 361.738 80.1434 364.933 92.9227Z" fill="#263238"/>
<path d="M379.195 74.096C378.739 74.2101 381.477 82.1971 385.243 91.8956C385.813 93.2648 386.384 94.634 386.84 96.0032L387.182 96.6878L387.867 96.4596C395.626 93.493 401.217 90.9828 401.103 90.6405C400.988 90.2982 395.055 92.1238 387.296 94.9763L388.323 95.4327C387.867 94.0635 387.296 92.8084 386.726 91.3251C383.075 81.6266 379.652 73.9819 379.195 74.096Z" fill="white"/>
<path d="M72.0386 430.089C67.8169 427.921 62.9106 427.693 58.3466 428.377C55.8364 428.834 53.2121 429.518 51.6147 431.344C49.9032 433.169 49.5609 436.478 51.5006 438.076C52.6416 438.988 54.239 439.217 55.7223 439.102C59.3735 439.102 63.367 438.418 66.2195 440.586C67.817 441.841 68.9579 443.895 70.8976 444.465C72.8373 445.036 75.0052 443.895 76.0321 442.183C77.059 440.472 77.059 438.304 76.6026 436.25C76.8308 436.478 76.2603 432.257 72.0386 430.089Z" fill="#009ECD"/>
<g opacity="0.2">
<path opacity="0.2" d="M72.0386 430.089C67.8169 427.921 62.9106 427.693 58.3466 428.377C55.8364 428.834 53.2121 429.518 51.6147 431.344C49.9032 433.169 49.5609 436.478 51.5006 438.076C52.6416 438.988 54.239 439.217 55.7223 439.102C59.3735 439.102 63.367 438.418 66.2195 440.586C67.817 441.841 68.9579 443.895 70.8976 444.465C72.8373 445.036 75.0052 443.895 76.0321 442.183C77.059 440.472 77.059 438.304 76.6026 436.25C76.8308 436.478 76.2603 432.257 72.0386 430.089Z" fill="white"/>
</g>
<path d="M81.623 411.604C79.1128 415.256 74.0924 414.001 71.8104 411.833C69.5284 409.665 68.5015 406.356 67.7028 403.275C65.649 396.315 63.5952 388.898 65.1926 381.71C65.649 379.542 66.4477 377.488 67.931 375.891C69.4143 374.294 71.6963 373.381 73.8642 373.951C76.3744 374.636 77.8577 377.032 78.9987 379.428C82.3076 386.274 84.0191 393.805 84.0191 401.449C84.0191 404.987 83.6768 408.752 81.623 411.604Z" fill="#009ECD"/>
<path d="M88.6972 416.853C85.9588 413.544 85.3883 408.752 86.6434 404.644C87.8985 400.536 90.6369 396.999 93.8317 394.147C97.597 390.838 102.047 388.214 106.725 386.502C108.551 385.818 110.604 385.361 112.544 385.475C114.484 385.703 116.538 386.616 117.45 388.442C118.82 391.066 117.45 394.147 116.081 396.771C113.571 401.335 110.719 405.671 107.638 409.665C105.128 412.973 102.161 416.168 98.2816 417.652C94.4022 419.135 90.4087 418.907 88.3549 416.282" fill="#009ECD"/>
<g opacity="0.1">
<path opacity="0.1" d="M88.6972 416.853C85.9588 413.544 85.3883 408.752 86.6434 404.644C87.8985 400.536 90.6369 396.999 93.8317 394.147C97.597 390.838 102.047 388.214 106.725 386.502C108.551 385.818 110.604 385.361 112.544 385.475C114.484 385.703 116.538 386.616 117.45 388.442C118.82 391.066 117.45 394.147 116.081 396.771C113.571 401.335 110.719 405.671 107.638 409.665C105.128 412.973 102.161 416.168 98.2816 417.652C94.4022 419.135 90.4087 418.907 88.3549 416.282" fill="black"/>
</g>
<path d="M81.8512 466.601C81.8512 466.601 81.7371 466.03 81.623 465.003C81.5089 463.748 81.3948 462.265 81.1666 460.439C80.9384 458.499 80.7102 456.332 80.1397 453.821C79.5692 451.311 78.7705 448.687 77.7436 446.063C76.6026 443.324 75.3475 440.928 73.7501 438.988C72.1527 437.049 70.4412 435.565 68.7297 434.767C67.0182 433.968 65.5349 433.626 64.508 433.397C63.4811 433.283 62.9106 433.169 62.9106 433.169C62.9106 433.169 63.4811 433.169 64.6221 433.169C65.649 433.283 67.2464 433.511 69.072 434.31C70.8976 435.109 72.7232 436.592 74.4347 438.532C76.0321 440.472 77.4013 442.982 78.5423 445.72C79.5692 448.459 80.482 451.197 80.9384 453.707C81.3948 456.217 81.623 458.499 81.8512 460.439C81.9653 462.379 82.0794 463.862 82.0794 465.003C81.8512 465.916 81.8512 466.601 81.8512 466.601Z" fill="#263238"/>
<path d="M81.5089 463.064C81.5089 463.064 81.5089 462.835 81.5089 462.265C81.5089 461.694 81.5089 461.01 81.5089 460.097C81.5089 458.157 81.5089 455.419 81.3948 451.996C81.2807 445.15 80.5961 435.794 79.4551 425.41C78.3141 415.027 76.8308 405.785 75.4616 399.167C75.1193 397.456 74.777 395.973 74.5488 394.718C74.2065 393.348 73.9783 392.207 73.7501 391.294C73.5219 390.382 73.4078 389.697 73.2937 389.127C73.1796 388.67 73.1796 388.328 73.1796 388.328C73.1796 388.328 73.2937 388.556 73.4078 389.012C73.5219 389.583 73.7501 390.268 74.0924 391.066C74.3206 391.979 74.6629 393.12 75.0052 394.375C75.3475 395.63 75.6898 397.228 76.0321 398.825C77.5154 405.443 79.1128 414.799 80.2538 425.182C81.3948 435.565 81.8512 444.922 81.9653 451.768C81.9653 455.191 81.9653 457.929 81.8512 459.869C81.8512 460.782 81.7371 461.466 81.7371 462.037C81.5089 462.835 81.5089 463.064 81.5089 463.064Z" fill="#263238"/>
<path d="M81.5088 444.922C81.5088 444.922 81.5088 444.123 81.5088 442.64C81.6229 441.156 81.8511 438.988 82.1934 436.478C82.6498 433.854 83.2203 430.773 84.2472 427.464C85.16 424.041 86.4151 420.504 88.0125 416.739C91.2073 409.322 95.429 403.161 99.0802 399.396C99.993 398.369 100.906 397.684 101.705 396.999C102.161 396.657 102.503 396.315 102.846 396.087C103.188 395.858 103.53 395.63 103.872 395.402C105.128 394.603 105.812 394.147 105.812 394.147C105.926 394.261 103.074 395.973 99.5366 399.738C95.9995 403.503 91.7778 409.551 88.6971 416.967C87.0997 420.618 85.8446 424.269 84.9318 427.578C83.9049 430.887 83.3344 433.968 82.7639 436.592C82.3075 439.217 81.9652 441.27 81.8511 442.754C81.6229 444.123 81.5088 444.922 81.5088 444.922Z" fill="#263238"/>
<path d="M254.94 294.538H207.246L188.305 241.595H190.929L209.756 291.913L254.94 292.142V294.538Z" fill="#455A64"/>
<path d="M276.164 301.156L274.338 466.715H269.432L271.486 299.901L276.164 301.156Z" fill="#263238"/>
<path d="M173.816 299.558C174.501 302.753 169.48 467.057 169.48 467.057H164.916L168.682 299.558H173.816Z" fill="#263238"/>
<path d="M118.021 294.538H321.12V302.867H304.347L315.3 466.145L310.508 466.373L299.555 302.867H135.136L127.149 466.487H122.357L130.344 302.867H118.021V294.538Z" fill="#263238"/>
<path d="M232.691 460.439V447.888L256.196 447.66L256.424 466.03L254.94 466.144C248.437 466.6 221.966 467.856 217.63 466.6C212.723 465.231 232.691 460.439 232.691 460.439Z" fill="#009ECD"/>
<path d="M247.866 465.916C248.208 463.976 249.235 462.15 250.832 460.895C252.43 459.64 254.369 458.956 256.309 459.184L256.423 465.802L247.866 465.916Z" fill="#F5F5F5"/>
<path d="M222.878 463.177C222.878 463.177 215.918 465.231 216.83 466.372C217.743 467.513 244.557 467.171 256.423 466.03V465.46L225.16 466.03C225.046 466.144 224.247 463.177 222.878 463.177Z" fill="#F5F5F5"/>
<path d="M256.651 465.459C256.651 465.459 256.537 465.459 256.195 465.459C255.853 465.459 255.51 465.459 255.054 465.574C253.913 465.688 252.43 465.688 250.832 465.802C247.181 465.916 242.275 466.144 236.684 466.258C231.207 466.372 226.187 466.258 222.535 466.144C220.824 466.144 219.455 466.03 218.314 466.03C217.857 466.03 217.515 466.03 217.173 466.03C216.944 466.03 216.716 466.03 216.716 466.03C216.716 466.03 216.83 466.03 217.173 466.03C217.515 466.03 217.857 466.03 218.314 466.03C219.455 466.03 220.938 466.03 222.535 466.03C226.187 466.03 231.093 466.03 236.684 466.03C242.161 465.916 247.181 465.802 250.832 465.688C252.544 465.688 253.913 465.574 255.054 465.574C255.51 465.574 255.853 465.574 256.195 465.574C256.537 465.459 256.651 465.459 256.651 465.459Z" fill="#263238"/>
<path d="M225.046 466.486C224.932 466.486 224.932 465.459 224.247 464.433C223.562 463.406 222.764 462.835 222.764 462.835C222.764 462.721 223.791 463.177 224.475 464.318C225.16 465.459 225.046 466.486 225.046 466.486Z" fill="#263238"/>
<path d="M231.892 462.949C231.777 462.949 231.435 462.607 231.093 462.036C230.751 461.466 230.522 461.01 230.636 461.01C230.751 461.01 231.093 461.352 231.435 461.922C231.777 462.379 232.006 462.835 231.892 462.949Z" fill="#263238"/>
<path d="M233.831 461.922C233.831 462.036 233.375 461.694 233.033 461.352C232.576 461.01 232.348 460.667 232.348 460.553C232.348 460.439 232.804 460.781 233.147 461.124C233.603 461.466 233.831 461.808 233.831 461.922Z" fill="#263238"/>
<path d="M234.972 459.64C234.972 459.755 234.402 459.755 233.717 459.755C233.033 459.755 232.462 459.755 232.462 459.64C232.462 459.526 233.033 459.526 233.717 459.526C234.402 459.526 234.972 459.526 234.972 459.64Z" fill="#263238"/>
<path d="M235.429 458.043C235.429 458.157 234.858 458.385 234.06 458.499C233.261 458.613 232.576 458.385 232.69 458.271C232.69 458.157 233.375 458.271 234.06 458.157C234.744 458.157 235.315 458.043 235.429 458.043Z" fill="#263238"/>
<path d="M231.093 460.896C231.093 460.896 230.522 461.01 229.61 460.896C229.153 460.896 228.583 460.781 228.012 460.553C227.67 460.439 227.442 460.325 227.099 460.211C226.985 460.097 226.757 459.983 226.757 459.755C226.643 459.526 226.757 459.298 226.985 459.184C228.469 458.385 229.838 459.184 230.408 459.983C230.751 460.325 230.865 460.782 230.865 461.01C230.979 461.238 230.979 461.466 230.865 461.466C230.865 461.466 230.751 460.896 230.18 460.211C229.838 459.869 229.495 459.526 228.925 459.412C228.354 459.298 227.67 459.184 227.099 459.526C226.871 459.755 226.985 459.983 227.214 460.097C227.442 460.211 227.784 460.325 228.012 460.439C228.583 460.667 229.153 460.782 229.61 460.782C230.522 460.782 231.093 460.782 231.093 460.896Z" fill="#263238"/>
<path d="M230.751 460.896C230.751 460.896 230.522 460.553 230.522 459.869C230.522 459.526 230.636 459.184 230.979 458.728C231.207 458.385 231.549 457.929 232.234 457.929C232.576 457.929 232.804 458.385 232.69 458.614C232.69 458.842 232.576 459.07 232.462 459.298C232.234 459.64 232.006 459.983 231.777 460.211C231.321 460.667 230.979 460.896 230.865 460.781C230.865 460.781 231.207 460.553 231.549 459.983C231.777 459.755 232.006 459.412 232.12 459.07C232.348 458.728 232.462 458.157 232.12 458.157C231.777 458.157 231.321 458.499 231.093 458.842C230.865 459.184 230.751 459.526 230.636 459.869C230.636 460.553 230.751 460.896 230.751 460.896Z" fill="#263238"/>
<path d="M256.195 459.07C256.195 459.07 255.51 459.07 254.483 459.184C253.457 459.298 251.973 459.754 250.718 460.781C249.463 461.808 248.778 463.177 248.436 464.204C248.094 465.231 248.094 465.916 247.98 465.916C247.98 465.916 247.98 465.802 247.98 465.459C247.98 465.117 248.094 464.661 248.208 464.204C248.55 463.177 249.235 461.694 250.604 460.667C251.973 459.64 253.457 459.184 254.483 459.07C255.054 459.07 255.51 459.07 255.739 459.07C255.967 459.07 256.195 459.07 256.195 459.07Z" fill="#263238"/>
<path d="M253.571 449.371C253.685 449.371 253.799 451.539 253.799 454.164C253.913 456.788 253.799 458.956 253.799 458.956C253.685 458.956 253.571 456.788 253.571 454.164C253.457 451.539 253.571 449.371 253.571 449.371Z" fill="#263238"/>
<path d="M244.899 463.748C244.899 463.862 243.416 464.09 241.476 464.09C239.536 464.09 238.053 463.976 238.053 463.862C238.053 463.748 239.65 463.862 241.476 463.862C243.302 463.748 244.899 463.634 244.899 463.748Z" fill="#263238"/>
<path d="M249.463 463.634C249.577 463.634 249.349 463.976 249.235 464.318C249.121 464.661 249.007 465.003 248.892 465.003C248.778 465.003 248.778 464.661 248.892 464.204C249.121 463.748 249.463 463.634 249.463 463.634Z" fill="#263238"/>
<path d="M251.175 461.466C251.175 461.466 251.06 461.808 250.832 462.036C250.604 462.265 250.376 462.493 250.262 462.379C250.262 462.379 250.376 462.036 250.604 461.808C250.832 461.58 251.175 461.352 251.175 461.466Z" fill="#263238"/>
<path d="M253.685 460.439C253.685 460.553 253.342 460.553 253 460.667C252.658 460.781 252.43 461.01 252.316 460.896C252.201 460.896 252.43 460.553 252.886 460.325C253.342 460.211 253.685 460.325 253.685 460.439Z" fill="#263238"/>
<path d="M255.396 459.983C255.396 460.097 255.282 460.211 255.054 460.211C254.826 460.325 254.712 460.325 254.598 460.211C254.598 460.097 254.712 459.983 254.94 459.983C255.168 459.868 255.396 459.868 255.396 459.983Z" fill="#263238"/>
<path d="M186.366 447.774L191.5 436.364L213.065 445.834L205.763 462.721L204.394 462.265C198.346 459.983 173.586 450.284 170.163 447.317C166.284 443.894 186.366 447.774 186.366 447.774Z" fill="#009ECD"/>
<path d="M198.004 459.07C199.145 457.358 200.856 456.217 202.796 455.647C204.736 455.19 206.79 455.304 208.501 456.331L205.877 462.379L198.004 459.07Z" fill="#F5F5F5"/>
<path d="M176.439 446.176C176.439 446.176 169.251 445.263 169.593 446.633C169.935 448.002 194.467 458.841 205.763 462.607L205.991 462.15L177.238 449.827C177.124 449.827 177.58 446.861 176.439 446.176Z" fill="#F5F5F5"/>
<path d="M206.219 462.264C206.219 462.264 206.105 462.264 205.877 462.15C205.534 462.036 205.192 461.922 204.736 461.694C203.709 461.237 202.34 460.781 200.742 460.096C197.433 458.727 192.755 456.902 187.735 454.62C182.714 452.452 178.15 450.284 174.956 448.801C173.472 448.116 172.103 447.431 171.076 446.975C170.734 446.747 170.392 446.633 170.049 446.404C169.821 446.29 169.707 446.176 169.707 446.176C169.707 446.176 169.821 446.176 170.049 446.29C170.392 446.404 170.734 446.633 171.076 446.747C172.103 447.203 173.472 447.888 174.956 448.572C178.265 450.056 182.714 452.109 187.849 454.391C192.869 456.559 197.547 458.499 200.856 459.868C202.454 460.553 203.709 461.009 204.85 461.466C205.192 461.58 205.649 461.808 205.877 461.922C206.105 462.264 206.219 462.264 206.219 462.264Z" fill="#263238"/>
<path d="M176.896 450.17C176.781 450.17 177.124 449.143 177.01 448.002C176.895 446.747 176.211 445.948 176.325 445.948C176.325 445.834 177.124 446.747 177.238 448.002C177.466 449.257 177.01 450.17 176.896 450.17Z" fill="#263238"/>
<path d="M184.654 449.713C184.54 449.713 184.426 449.257 184.312 448.572C184.198 447.888 184.198 447.431 184.312 447.431C184.426 447.431 184.54 447.888 184.654 448.572C184.768 449.143 184.768 449.713 184.654 449.713Z" fill="#263238"/>
<path d="M186.822 449.599C186.708 449.599 186.48 449.257 186.252 448.801C186.023 448.344 185.909 447.888 186.023 447.888C186.138 447.888 186.366 448.23 186.594 448.687C186.822 449.143 186.936 449.485 186.822 449.599Z" fill="#263238"/>
<path d="M188.876 448.002C188.876 448.116 188.305 447.888 187.735 447.66C187.164 447.431 186.594 447.089 186.708 447.089C186.708 446.975 187.279 447.203 187.849 447.431C188.419 447.66 188.876 447.888 188.876 448.002Z" fill="#263238"/>
<path d="M189.903 446.747C189.903 446.861 189.218 446.861 188.534 446.519C187.735 446.291 187.279 445.834 187.279 445.834C187.279 445.72 187.849 446.062 188.648 446.291C189.218 446.519 189.903 446.633 189.903 446.747Z" fill="#263238"/>
<path d="M184.768 447.546C184.768 447.546 184.198 447.432 183.399 446.975C182.943 446.747 182.486 446.405 182.03 445.948C181.802 445.72 181.573 445.492 181.345 445.264C181.231 445.149 181.117 444.921 181.231 444.693C181.231 444.465 181.459 444.237 181.688 444.237C183.285 444.123 184.312 445.492 184.54 446.405C184.654 446.861 184.654 447.317 184.54 447.546C184.54 447.774 184.426 447.888 184.426 447.888C184.426 447.888 184.54 447.317 184.312 446.405C184.198 445.948 183.97 445.492 183.513 445.149C183.057 444.807 182.372 444.465 181.802 444.579C181.459 444.693 181.459 444.921 181.688 445.149C181.802 445.378 182.144 445.606 182.372 445.834C182.829 446.29 183.285 446.519 183.627 446.861C184.312 447.203 184.768 447.432 184.768 447.546Z" fill="#263238"/>
<path d="M184.426 447.431C184.426 447.431 184.312 446.975 184.654 446.405C184.768 446.062 185.111 445.834 185.453 445.606C185.795 445.378 186.366 445.15 186.936 445.378C187.278 445.606 187.278 445.948 187.05 446.176C186.936 446.405 186.708 446.519 186.594 446.747C186.252 446.975 185.909 447.203 185.567 447.317C184.996 447.546 184.54 447.546 184.54 447.546C184.54 447.546 184.882 447.432 185.453 447.203C185.795 447.089 186.023 446.861 186.366 446.633C186.708 446.405 187.05 445.948 186.708 445.72C186.366 445.492 185.909 445.72 185.567 445.948C185.225 446.176 184.996 446.405 184.768 446.633C184.54 446.975 184.426 447.431 184.426 447.431Z" fill="#263238"/>
<path d="M208.387 456.217C208.387 456.217 207.816 455.875 206.79 455.532C205.763 455.19 204.279 455.076 202.682 455.418C201.085 455.875 199.944 456.788 199.145 457.586C198.46 458.385 198.118 458.955 198.118 458.955C198.118 458.955 198.118 458.841 198.346 458.499C198.46 458.271 198.688 457.814 199.145 457.472C199.829 456.673 201.085 455.647 202.682 455.19C204.279 454.734 205.877 454.962 206.904 455.418C207.474 455.647 207.817 455.761 208.045 455.989C208.273 456.103 208.387 456.217 208.387 456.217Z" fill="#263238"/>
<path d="M210.099 446.29C210.213 446.29 209.414 448.344 208.387 450.74C207.36 453.251 206.447 455.19 206.333 455.19C206.219 455.19 207.018 453.136 208.045 450.74C209.072 448.23 209.984 446.176 210.099 446.29Z" fill="#263238"/>
<path d="M196.178 455.761C196.178 455.875 194.695 455.418 192.87 454.734C191.158 453.935 189.789 453.136 189.789 453.136C189.789 453.022 191.158 453.821 192.984 454.506C194.695 455.19 196.178 455.647 196.178 455.761Z" fill="#263238"/>
<path d="M200.4 457.586C200.4 457.701 200.172 457.815 199.83 458.043C199.487 458.271 199.373 458.499 199.259 458.499C199.145 458.499 199.259 458.157 199.601 457.815C199.944 457.586 200.4 457.586 200.4 457.586Z" fill="#263238"/>
<path d="M202.796 456.331C202.796 456.445 202.568 456.559 202.226 456.673C201.883 456.788 201.655 456.902 201.541 456.788C201.541 456.673 201.769 456.559 202.111 456.445C202.568 456.331 202.796 456.217 202.796 456.331Z" fill="#263238"/>
<path d="M205.534 456.445C205.534 456.56 205.192 456.331 204.85 456.331C204.508 456.331 204.165 456.331 204.165 456.331C204.165 456.217 204.393 455.989 204.85 456.103C205.306 456.103 205.534 456.331 205.534 456.445Z" fill="#263238"/>
<path d="M207.36 456.674C207.36 456.788 207.132 456.788 207.018 456.788C206.79 456.788 206.675 456.674 206.675 456.674C206.675 456.56 206.904 456.56 207.018 456.56C207.132 456.56 207.36 456.674 207.36 456.674Z" fill="#263238"/>
<path d="M399.733 363.91L416.734 237.031C417.19 233.608 414.338 230.641 411.029 230.984L370.067 234.407C366.302 234.749 363.335 237.715 362.993 241.481L353.066 361.628L399.733 363.91Z" fill="#009ECD"/>
<g opacity="0.2">
<path opacity="0.2" d="M399.733 363.91L416.734 237.031C417.19 233.608 414.338 230.641 411.029 230.984L370.067 234.407C366.302 234.749 363.335 237.715 362.993 241.481L353.066 361.628L399.733 363.91Z" fill="black"/>
</g>
<path d="M360.254 177.47C360.597 172.678 361.852 167.886 362.536 163.094C363.221 158.302 363.335 153.281 361.395 148.831C359.228 143.811 354.664 140.046 349.643 137.992C344.509 136.052 338.918 135.71 333.441 136.166C332.414 136.28 331.501 136.394 330.588 136.851C329.676 137.307 328.991 138.106 328.991 139.133C328.991 140.16 329.79 141.072 330.817 140.958C328.763 141.301 326.595 141.529 324.655 142.328C323.856 142.67 323.058 143.012 322.715 143.811C322.259 144.61 322.487 145.751 322.944 146.549C323.514 147.348 324.199 147.919 324.997 148.489C324.085 148.147 322.944 149.06 322.83 149.972C322.601 150.999 323.058 152.026 323.628 152.825C324.199 153.624 324.997 154.308 325.568 155.107C328.078 158.416 327.508 162.98 326.937 166.973" fill="#263238"/>
<path d="M359.798 205.882L336.75 205.425C336.408 202.801 335.951 192.418 335.951 192.418C335.951 192.418 326.367 191.505 325.568 182.035C324.883 172.45 325.112 150.429 325.112 150.429C335.837 144.952 348.73 145.865 358.657 152.597L360.14 153.624L359.798 205.882Z" fill="#FFBE9D"/>
<path d="M328.42 166.974C328.991 166.403 328.991 165.49 328.42 165.034C327.85 164.463 326.937 164.463 326.481 165.034C325.91 165.604 325.91 166.517 326.481 166.974C327.051 167.43 327.85 167.43 328.42 166.974Z" fill="#263238"/>
<path d="M326.024 164.577C326.138 164.692 327.051 164.007 328.42 163.893C329.79 163.779 330.702 164.463 330.817 164.235C330.931 164.121 330.702 163.893 330.246 163.551C329.79 163.208 329.105 162.98 328.306 163.094C327.508 163.208 326.823 163.551 326.481 163.893C326.024 164.235 325.91 164.577 326.024 164.577Z" fill="#263238"/>
<path d="M341.2 164.806C340.629 165.262 340.401 166.061 340.858 166.745C341.314 167.316 342.113 167.544 342.797 167.088C343.368 166.631 343.596 165.833 343.14 165.148C342.683 164.578 341.885 164.349 341.2 164.806Z" fill="#263238"/>
<path d="M340.287 164.92C340.401 165.034 341.314 164.349 342.683 164.235C344.052 164.121 344.965 164.806 345.079 164.577C345.193 164.463 344.965 164.235 344.509 163.893C344.052 163.551 343.368 163.322 342.569 163.436C341.77 163.551 341.086 163.893 340.743 164.235C340.401 164.463 340.287 164.806 340.287 164.92Z" fill="#263238"/>
<path d="M335.723 176.101C335.723 175.987 334.924 175.873 333.555 175.759C333.213 175.759 332.984 175.645 332.87 175.531C332.756 175.303 332.87 174.96 333.099 174.504C333.327 173.591 333.669 172.678 334.011 171.765C335.266 167.886 336.065 164.691 335.837 164.577C335.609 164.463 334.468 167.658 333.327 171.537C333.099 172.45 332.756 173.363 332.528 174.276C332.414 174.732 332.186 175.188 332.414 175.759C332.528 175.987 332.756 176.215 332.984 176.215C333.213 176.215 333.441 176.215 333.555 176.215C334.924 176.215 335.723 176.101 335.723 176.101Z" fill="#263238"/>
<path d="M340.059 177.242C341.428 176.33 336.408 179.524 333.783 179.524C333.783 179.524 335.495 181.921 338.119 180.665C340.972 179.524 340.059 177.242 340.059 177.242Z" fill="white"/>
<path d="M335.951 192.19C335.951 192.19 341.998 192.304 348.16 187.854C348.16 187.854 345.65 194.928 336.065 194.586L335.951 192.19Z" fill="#A36957"/>
<path d="M360.597 160.698L360.14 173.021C360.14 173.021 355.805 171.651 355.462 171.537C355.12 171.423 355.576 156.362 355.576 156.362C355.576 156.362 356.147 150.657 352.496 149.402C348.616 148.033 346.905 150.771 341.428 151.684C323.286 154.764 324.541 149.174 324.541 149.174C324.541 149.174 322.259 146.777 326.937 144.039C331.73 141.301 343.254 140.388 349.643 142.67C362.194 147.006 362.993 151.341 362.993 155.107C362.879 160.469 360.597 160.698 360.597 160.698Z" fill="#263238"/>
<path d="M358.999 170.967C358.999 170.967 359.114 171.081 359.342 171.195C359.57 171.309 359.912 171.423 360.369 171.309C361.281 171.081 362.08 169.712 362.194 168.342C362.308 167.658 362.194 166.859 361.966 166.289C361.738 165.718 361.396 165.262 360.939 165.148C360.483 165.034 360.14 165.262 360.026 165.49C359.912 165.718 359.912 165.832 359.912 165.832C359.912 165.832 359.798 165.718 359.798 165.376C359.798 165.262 359.912 165.034 360.14 164.919C360.369 164.805 360.597 164.691 360.939 164.805C361.51 164.919 362.08 165.49 362.308 166.175C362.537 166.859 362.651 167.658 362.651 168.457C362.422 170.054 361.51 171.537 360.255 171.765C359.684 171.88 359.228 171.651 358.999 171.423C358.999 171.195 358.999 171.081 358.999 170.967Z" fill="#A36957"/>
<path d="M267.833 271.375C267.833 271.375 256.423 270.805 254.141 271.831C250.148 273.543 238.396 292.027 239.08 292.027C240.906 292.027 244.557 292.027 244.557 292.027L262.813 285.067L267.149 286.208L267.833 271.375Z" fill="#FFBE9D"/>
<path d="M218.77 324.317C218.77 324.317 184.54 442.525 184.54 441.955C184.54 441.384 215.119 456.674 215.119 456.674L235.771 371.213L218.77 324.317Z" fill="#263238"/>
<path d="M215.804 457.472L183.513 441.612L184.882 437.277L217.515 453.137L215.804 457.472Z" fill="#455A64"/>
<path d="M220.14 413.886C220.254 413.886 220.71 413.201 220.938 412.289C221.166 411.376 221.28 410.463 221.166 410.463C221.052 410.463 220.596 411.147 220.368 412.06C220.025 413.087 219.911 413.886 220.14 413.886Z" fill="#455A64"/>
<path d="M217.972 420.846C218.086 420.846 218.542 420.162 218.77 419.249C219.113 418.336 219.113 417.537 218.999 417.423C218.885 417.423 218.428 418.108 218.2 419.021C217.972 419.933 217.858 420.732 217.972 420.846Z" fill="#455A64"/>
<path d="M215.804 427.692C215.918 427.692 216.374 427.007 216.602 426.095C216.945 425.182 217.059 424.383 216.83 424.269C216.716 424.269 216.26 424.954 216.032 425.866C215.689 426.779 215.575 427.692 215.804 427.692Z" fill="#455A64"/>
<path d="M213.522 434.538C213.636 434.538 214.092 433.854 214.434 432.941C214.777 432.028 214.891 431.229 214.663 431.115C214.548 431.115 214.092 431.8 213.75 432.713C213.407 433.625 213.293 434.424 213.522 434.538Z" fill="#455A64"/>
<path d="M211.126 441.384C211.24 441.498 211.696 440.7 212.039 439.787C212.381 438.874 212.495 438.075 212.381 437.961C212.267 437.847 211.81 438.646 211.468 439.558C211.012 440.471 210.898 441.27 211.126 441.384Z" fill="#455A64"/>
<path d="M208.616 448.116C208.73 448.23 209.186 447.431 209.528 446.519C209.871 445.606 209.985 444.807 209.871 444.693C209.757 444.579 209.3 445.378 208.958 446.29C208.615 447.203 208.387 448.116 208.616 448.116Z" fill="#455A64"/>
<path d="M210.441 450.969C210.441 450.969 210.669 450.512 211.126 449.713C211.582 448.915 212.038 447.66 212.723 446.176C213.978 443.21 215.575 438.988 217.173 434.31C218.77 429.632 220.025 425.296 221.052 422.215C221.509 420.732 221.851 419.477 222.193 418.564C222.421 417.651 222.536 417.195 222.536 417.195C222.536 417.195 222.307 417.651 221.965 418.45C221.623 419.249 221.166 420.504 220.71 422.101C219.683 425.296 218.2 429.518 216.716 434.082C215.119 438.76 213.636 442.982 212.495 446.062C211.924 447.431 211.468 448.687 211.126 449.599C210.555 450.512 210.327 450.969 210.441 450.969Z" fill="#455A64"/>
<path d="M378.054 316.102C377.712 309.827 381.363 350.446 350.1 351.587C318.836 352.614 255.054 352.158 255.054 352.158L262.585 455.19H225.16L217.287 345.54C217.287 345.54 213.293 313.82 234.972 309.713C248.55 307.203 333.213 306.404 333.213 306.404L378.054 316.102Z" fill="#263238"/>
<path d="M263.383 455.419H223.905V449.257L263.383 449.371V455.419Z" fill="#455A64"/>
<path d="M325.112 346.681C325.112 346.681 324.997 346.681 324.655 346.681C324.313 346.681 323.97 346.681 323.514 346.567C322.487 346.567 320.89 346.453 318.95 346.339C314.957 346.225 309.137 345.997 302.063 345.654C287.687 345.198 267.605 344.513 244.899 343.715H244.557V344.057C245.127 348.279 245.47 352.729 245.926 357.178C246.382 363.568 246.953 369.958 247.409 376.005C247.866 382.052 248.55 387.871 249.121 393.462C250.262 404.53 251.289 414.571 252.201 423.014C253.114 431.458 253.799 438.19 254.369 442.982C254.598 445.264 254.826 447.089 254.94 448.344C255.054 448.915 255.054 449.371 255.168 449.714C255.168 450.056 255.282 450.17 255.282 450.17C255.282 450.17 255.282 450.056 255.282 449.714C255.282 449.371 255.168 448.915 255.168 448.344C255.054 447.089 254.94 445.264 254.712 442.868C254.255 438.075 253.571 431.344 252.772 422.9C251.973 414.457 250.946 404.416 249.805 393.348C249.235 387.757 248.55 381.938 248.094 375.891C247.637 369.844 247.181 363.568 246.611 357.064C246.268 352.5 245.812 348.05 245.241 343.943L244.899 344.285C267.605 344.97 287.687 345.654 302.063 345.997C309.252 346.225 314.957 346.339 319.064 346.453C321.004 346.453 322.601 346.567 323.628 346.567C324.085 346.567 324.541 346.567 324.769 346.567C324.997 346.681 325.112 346.681 325.112 346.681Z" fill="#455A64"/>
<path d="M321.46 342.231C321.46 342.46 322.259 342.574 323.286 342.574C324.313 342.574 325.112 342.46 325.112 342.346C325.112 342.117 324.313 342.003 323.286 342.003C322.259 341.889 321.46 342.003 321.46 342.231Z" fill="#455A64"/>
<path d="M314.272 342.003C314.272 342.231 315.071 342.345 316.098 342.345C317.124 342.345 317.923 342.231 317.923 342.117C317.923 341.889 317.124 341.775 316.098 341.775C315.071 341.775 314.272 341.889 314.272 342.003Z" fill="#455A64"/>
<path d="M307.084 341.889C307.084 342.117 307.882 342.231 308.909 342.231C309.936 342.231 310.735 342.117 310.735 342.003C310.735 341.775 309.936 341.661 308.909 341.661C307.882 341.547 307.084 341.661 307.084 341.889Z" fill="#455A64"/>
<path d="M299.781 341.661C299.781 341.889 300.58 342.003 301.607 342.003C302.634 342.003 303.432 341.889 303.432 341.775C303.432 341.547 302.634 341.433 301.607 341.433C300.694 341.433 299.781 341.547 299.781 341.661Z" fill="#455A64"/>
<path d="M292.593 341.547C292.593 341.775 293.392 341.889 294.418 341.889C295.445 341.889 296.244 341.775 296.244 341.661C296.244 341.433 295.445 341.319 294.418 341.319C293.392 341.205 292.593 341.319 292.593 341.547Z" fill="#455A64"/>
<path d="M285.405 341.319C285.405 341.547 286.203 341.661 287.23 341.661C288.257 341.661 289.056 341.547 289.056 341.433C289.056 341.204 288.257 341.09 287.23 341.09C286.203 341.09 285.405 341.204 285.405 341.319Z" fill="#455A64"/>
<path d="M278.216 341.205C278.216 341.433 279.015 341.547 280.042 341.547C281.069 341.547 281.868 341.433 281.868 341.319C281.868 341.09 281.069 340.976 280.042 340.976C279.015 340.862 278.216 340.976 278.216 341.205Z" fill="#455A64"/>
<path d="M270.914 340.976C270.914 341.204 271.713 341.319 272.739 341.319C273.766 341.319 274.565 341.204 274.565 341.09C274.565 340.862 273.766 340.748 272.739 340.748C271.713 340.748 270.914 340.862 270.914 340.976Z" fill="#455A64"/>
<path d="M263.725 340.862C263.725 341.091 264.524 341.205 265.551 341.205C266.578 341.205 267.377 341.091 267.377 340.976C267.377 340.862 266.578 340.634 265.551 340.634C264.524 340.52 263.725 340.634 263.725 340.862Z" fill="#455A64"/>
<path d="M256.537 340.748C256.537 340.976 257.336 341.09 258.363 341.09C259.39 341.09 260.189 340.976 260.189 340.862C260.189 340.634 259.39 340.52 258.363 340.52C257.336 340.406 256.537 340.52 256.537 340.748Z" fill="#455A64"/>
<path d="M249.235 340.52C249.235 340.748 250.034 340.862 251.06 340.862C252.087 340.862 252.886 340.748 252.886 340.634C252.886 340.52 252.087 340.292 251.06 340.292C250.034 340.177 249.235 340.406 249.235 340.52Z" fill="#455A64"/>
<path d="M242.046 340.406C242.046 340.634 242.845 340.748 243.872 340.748C244.899 340.748 245.698 340.634 245.698 340.52C245.698 340.292 244.899 340.178 243.872 340.178C242.845 340.063 242.046 340.178 242.046 340.406Z" fill="#455A64"/>
<path d="M242.047 346.91C242.275 346.91 242.275 346.111 242.161 345.084C242.047 344.057 241.818 343.258 241.704 343.372C241.476 343.372 241.476 344.171 241.59 345.198C241.704 346.111 241.932 346.91 242.047 346.91Z" fill="#455A64"/>
<path d="M242.731 354.098C242.959 354.098 242.959 353.299 242.845 352.272C242.731 351.245 242.503 350.447 242.389 350.561C242.161 350.561 242.161 351.359 242.275 352.386C242.389 353.299 242.617 354.098 242.731 354.098Z" fill="#455A64"/>
<path d="M243.53 361.286C243.758 361.286 243.758 360.488 243.644 359.461C243.53 358.434 243.302 357.635 243.188 357.749C242.959 357.749 242.959 358.548 243.073 359.575C243.073 360.488 243.302 361.286 243.53 361.286Z" fill="#455A64"/>
<path d="M244.214 368.474C244.443 368.474 244.443 367.676 244.329 366.649C244.214 365.622 243.986 364.823 243.872 364.937C243.644 364.937 243.644 365.736 243.758 366.763C243.758 367.676 243.986 368.474 244.214 368.474Z" fill="#455A64"/>
<path d="M244.899 375.663C245.127 375.663 245.127 374.864 245.013 373.837C244.899 372.81 244.671 372.012 244.557 372.126C244.329 372.126 244.329 372.924 244.443 373.951C244.443 374.864 244.671 375.663 244.899 375.663Z" fill="#455A64"/>
<path d="M245.584 382.851C245.812 382.851 245.812 382.052 245.698 381.026C245.584 379.999 245.356 379.2 245.241 379.314C245.013 379.314 245.013 380.113 245.127 381.14C245.241 382.052 245.47 382.851 245.584 382.851Z" fill="#455A64"/>
<path d="M246.268 390.039C246.497 390.039 246.497 389.241 246.382 388.214C246.268 387.187 246.04 386.388 245.926 386.502C245.698 386.502 245.698 387.301 245.812 388.328C245.926 389.241 246.154 390.039 246.268 390.039Z" fill="#455A64"/>
<path d="M246.953 397.228C247.181 397.228 247.181 396.429 247.067 395.402C246.953 394.375 246.725 393.576 246.611 393.691C246.382 393.691 246.382 394.489 246.497 395.516C246.611 396.429 246.839 397.228 246.953 397.228Z" fill="#455A64"/>
<path d="M247.752 404.416C247.98 404.416 247.98 403.617 247.866 402.59C247.752 401.563 247.523 400.765 247.409 400.879C247.181 400.879 247.181 401.678 247.295 402.704C247.295 403.617 247.523 404.416 247.752 404.416Z" fill="#455A64"/>
<path d="M248.436 411.604C248.664 411.604 248.664 410.806 248.55 409.779C248.436 408.752 248.208 407.953 248.094 408.067C247.866 408.067 247.866 408.866 247.98 409.893C247.98 410.806 248.208 411.604 248.436 411.604Z" fill="#455A64"/>
<path d="M249.121 418.793C249.349 418.793 249.349 417.994 249.235 416.967C249.121 415.94 248.893 415.141 248.779 415.255C248.55 415.255 248.55 416.054 248.664 417.081C248.779 417.994 248.893 418.793 249.121 418.793Z" fill="#455A64"/>
<path d="M249.805 425.981C250.034 425.981 250.034 425.182 249.92 424.156C249.805 423.129 249.577 422.33 249.463 422.444C249.235 422.444 249.235 423.243 249.349 424.27C249.463 425.182 249.691 425.981 249.805 425.981Z" fill="#455A64"/>
<path d="M250.49 433.169C250.718 433.169 250.718 432.371 250.604 431.344C250.49 430.317 250.262 429.518 250.148 429.632C249.92 429.632 249.92 430.431 250.034 431.458C250.148 432.371 250.376 433.169 250.49 433.169Z" fill="#455A64"/>
<path d="M251.289 440.358C251.517 440.358 251.517 439.559 251.403 438.532C251.289 437.505 251.061 436.706 250.947 436.82C250.718 436.82 250.718 437.619 250.832 438.646C250.832 439.559 251.061 440.358 251.289 440.358Z" fill="#455A64"/>
<path d="M251.973 447.546C252.202 447.546 252.202 446.747 252.088 445.72C251.973 444.694 251.745 443.895 251.631 444.009C251.403 444.009 251.403 444.808 251.517 445.835C251.517 446.747 251.745 447.546 251.973 447.546Z" fill="#455A64"/>
<path d="M252.316 451.311C252.544 451.311 252.658 451.197 252.658 451.197C252.658 451.083 252.544 451.083 252.316 451.083C252.087 451.083 251.973 451.197 251.973 451.197C251.973 451.311 252.087 451.425 252.316 451.311Z" fill="#455A64"/>
<path d="M249.92 347.366C249.806 347.48 250.947 348.735 252.43 349.99C253.913 351.359 255.168 352.272 255.282 352.158C255.396 352.044 254.255 350.789 252.772 349.534C251.289 348.165 250.034 347.138 249.92 347.366Z" fill="#263238"/>
<path d="M247.295 348.735C247.181 348.849 249.007 349.876 251.289 350.903C253.571 351.93 255.51 352.614 255.624 352.5C255.739 352.386 253.913 351.359 251.631 350.332C249.349 349.306 247.409 348.507 247.295 348.735Z" fill="#263238"/>
<path d="M323.514 266.925C323.514 266.925 327.28 225.963 334.126 208.05L332.756 207.023L334.81 199.948L360.255 196.868L359.912 202.344C363.678 204.17 366.872 207.023 368.584 210.56C377.712 229.843 373.148 252.435 378.054 294.309C378.054 294.309 383.759 313.935 377.826 320.096L322.373 307.203L324.998 294.537C300.808 294.081 260.987 289.631 260.987 289.631L262.128 266.697C262.128 266.811 321.575 267.153 323.514 266.925Z" fill="#455A64"/>
<path d="M334.924 199.948C334.81 199.948 333.897 202.002 333.099 204.512C332.87 205.197 332.642 205.768 332.642 206.452C332.642 206.795 332.756 207.137 332.985 207.365C333.213 207.593 333.441 207.707 333.669 207.821C334.582 208.164 335.152 207.936 335.152 207.821C335.152 207.707 334.582 207.707 333.783 207.365C333.441 207.137 333.099 206.795 333.213 206.338C333.213 205.882 333.555 205.197 333.783 204.627C334.468 202.116 335.038 199.948 334.924 199.948Z" fill="#E0E0E0"/>
<path d="M328.763 230.413C328.763 230.641 339.032 230.755 351.583 230.755C364.134 230.755 374.403 230.641 374.403 230.413C374.403 230.185 364.248 230.071 351.583 230.071C339.032 230.071 328.763 230.299 328.763 230.413Z" fill="#263238"/>
<path d="M331.159 218.889C331.159 219.117 340.173 219.231 351.355 219.231C362.536 219.231 371.55 219.117 371.55 218.889C371.55 218.661 362.536 218.547 351.355 218.547C340.287 218.547 331.159 218.775 331.159 218.889Z" fill="#263238"/>
<path d="M334.582 208.734C334.582 208.962 342.113 209.076 351.355 209.076C360.597 209.076 368.128 208.962 368.128 208.734C368.128 208.506 360.597 208.392 351.355 208.392C341.999 208.392 334.582 208.62 334.582 208.734Z" fill="#263238"/>
<path d="M334.924 201.546C334.924 201.774 340.629 201.888 347.703 201.888C354.778 201.888 360.483 201.774 360.483 201.546C360.483 201.317 354.778 201.203 347.703 201.203C340.629 201.317 334.924 201.432 334.924 201.546Z" fill="#263238"/>
<path d="M327.165 241.481C327.165 241.709 338.005 241.823 351.24 241.823C364.59 241.823 375.316 241.709 375.316 241.481C375.316 241.253 364.476 241.139 351.24 241.139C338.005 241.253 327.165 241.367 327.165 241.481Z" fill="#263238"/>
<path d="M325.226 252.663C325.226 252.891 336.522 253.005 350.328 253.005C364.248 253.005 375.43 252.891 375.43 252.663C375.43 252.434 364.134 252.32 350.328 252.32C336.522 252.32 325.226 252.549 325.226 252.663Z" fill="#263238"/>
<path d="M323.971 262.932C323.971 263.16 335.495 263.274 349.643 263.274C363.906 263.274 375.316 263.16 375.316 262.932C375.316 262.703 363.792 262.589 349.643 262.589C335.495 262.589 323.971 262.818 323.971 262.932Z" fill="#263238"/>
<path d="M267.833 274.228C267.833 274.456 292.137 274.57 322.145 274.57C352.153 274.57 376.457 274.456 376.457 274.228C376.457 273.999 352.153 273.885 322.145 273.885C292.137 273.885 267.833 273.999 267.833 274.228Z" fill="#263238"/>
<path d="M267.491 283.127C267.491 283.356 292.022 283.47 322.145 283.47C352.382 283.47 376.799 283.356 376.799 283.127C376.799 282.899 352.267 282.785 322.145 282.785C291.908 282.899 267.491 283.013 267.491 283.127Z" fill="#263238"/>
<path d="M325.91 294.309C325.91 294.538 337.663 294.652 352.039 294.652C366.53 294.652 378.168 294.538 378.168 294.309C378.168 294.081 366.416 293.967 352.039 293.967C337.548 293.967 325.91 294.081 325.91 294.309Z" fill="#263238"/>
<path d="M323.172 304.578C323.172 304.806 335.837 304.92 351.583 304.92C367.329 304.92 379.994 304.806 379.994 304.578C379.994 304.35 367.329 304.236 351.583 304.236C335.951 304.236 323.172 304.35 323.172 304.578Z" fill="#263238"/>
<path d="M371.55 307.317C371.779 307.317 371.893 287.349 371.893 262.704C371.893 238.058 371.779 218.09 371.55 218.09C371.322 218.09 371.208 238.058 371.208 262.704C371.322 287.349 371.436 307.317 371.55 307.317Z" fill="#263238"/>
<path d="M357.858 306.176C358.087 306.176 358.201 281.758 358.201 251.75C358.201 221.627 358.087 197.21 357.858 197.21C357.63 197.21 357.516 221.627 357.516 251.75C357.516 281.758 357.744 306.176 357.858 306.176Z" fill="#263238"/>
<path d="M342.683 304.578C342.911 304.578 343.025 281.074 343.025 252.092C343.025 223.111 342.911 199.606 342.683 199.606C342.455 199.606 342.341 223.111 342.341 252.092C342.455 281.074 342.569 304.578 342.683 304.578Z" fill="#263238"/>
<path d="M330.018 307.203C330.246 307.203 330.36 288.718 330.36 266.012C330.36 243.192 330.246 224.822 330.018 224.822C329.79 224.822 329.676 243.306 329.676 266.012C329.676 288.832 329.79 307.203 330.018 307.203Z" fill="#263238"/>
<path d="M316.554 266.925C316.44 266.925 316.44 268.408 316.44 270.919C316.44 273.429 316.44 276.852 316.554 280.617C316.668 284.382 316.782 287.805 316.896 290.316C317.011 292.826 317.125 294.309 317.239 294.309C317.353 294.309 317.353 292.826 317.353 290.316C317.353 287.805 317.353 284.382 317.239 280.617C317.125 276.852 317.011 273.429 316.896 270.919C316.782 268.408 316.668 266.811 316.554 266.925Z" fill="#263238"/>
<path d="M302.177 267.382C302.063 267.382 302.063 268.865 302.063 271.147C302.063 273.429 302.063 276.624 302.177 280.161C302.291 283.698 302.406 286.893 302.52 289.175C302.634 291.457 302.748 292.94 302.862 292.94C302.976 292.94 302.976 291.457 302.976 289.175C302.976 286.893 302.976 283.698 302.862 280.161C302.748 276.624 302.634 273.429 302.52 271.147C302.406 268.751 302.291 267.382 302.177 267.382Z" fill="#263238"/>
<path d="M287.915 267.153C287.801 267.153 287.801 268.523 287.801 270.805C287.801 273.087 287.801 276.167 287.915 279.59C288.029 283.013 288.143 286.094 288.257 288.376C288.371 290.658 288.485 292.027 288.6 292.027C288.714 292.027 288.714 290.658 288.714 288.376C288.714 286.094 288.714 283.013 288.6 279.59C288.485 276.167 288.371 273.087 288.257 270.805C288.143 268.523 288.029 267.039 287.915 267.153Z" fill="#263238"/>
<path d="M273.538 266.697C273.424 266.697 273.424 268.066 273.424 270.234C273.424 272.402 273.424 275.369 273.538 278.792C273.652 282.101 273.766 285.067 273.88 287.349C273.995 289.517 274.109 290.886 274.223 290.886C274.337 290.886 274.337 289.517 274.337 287.349C274.337 285.181 274.337 282.215 274.223 278.792C274.109 275.483 273.995 272.402 273.88 270.234C273.766 268.066 273.652 266.697 273.538 266.697Z" fill="#263238"/>
<path d="M328.535 272.06C328.649 271.946 327.85 270.348 326.367 268.637C324.883 266.925 323.286 266.013 323.172 266.127C323.058 266.241 324.427 267.382 325.91 269.093C327.394 270.691 328.306 272.174 328.535 272.06Z" fill="#263238"/>
<path d="M325.226 272.288C325.34 272.288 325.682 270.691 324.998 268.865C324.313 267.039 323.058 265.898 322.944 266.127C322.83 266.241 323.742 267.382 324.427 269.093C324.998 270.805 325.112 272.288 325.226 272.288Z" fill="#263238"/>
<path d="M266.806 289.517C267.034 289.517 267.605 284.611 268.061 278.563C268.632 272.516 268.86 267.61 268.746 267.61C268.518 267.61 267.947 272.516 267.491 278.563C267.034 284.611 266.692 289.517 266.806 289.517Z" fill="#263238"/>
<path d="M266.122 271.946C266.122 272.06 266.464 272.288 266.464 272.859C266.464 273.087 266.464 273.429 266.236 273.657C266.008 273.886 265.665 273.886 265.323 273.771C264.981 273.657 264.753 273.315 264.753 272.973C264.753 272.63 264.981 272.402 265.209 272.174C265.665 271.832 266.122 271.946 266.122 271.832C266.236 271.832 265.665 271.375 264.981 271.832C264.639 272.06 264.296 272.402 264.182 272.973C264.068 273.543 264.524 274.114 265.095 274.342C265.665 274.57 266.35 274.456 266.692 274C267.035 273.543 267.035 273.087 267.035 272.745C266.692 271.946 266.122 271.832 266.122 271.946Z" fill="#263238"/>
<path d="M323.628 266.811C323.628 266.811 323.514 266.811 323.286 266.811C323.058 266.811 322.83 266.811 322.487 266.925C321.803 267.039 320.662 267.039 319.178 267.154C316.326 267.268 312.104 267.382 306.741 267.268C296.016 267.154 280.613 266.811 262.242 266.127H262.014V266.355C261.672 273.429 261.216 281.188 260.873 289.403V289.631H261.101C264.068 290.202 266.921 290.43 270.001 290.772C272.968 291 276.049 291.343 279.243 291.571C285.519 292.027 291.908 292.598 298.526 293.054C306.741 293.625 314.843 294.195 322.601 294.652C329.562 294.195 336.408 291.685 341.086 287.121C343.482 284.839 345.307 282.101 346.448 279.248C347.703 276.396 348.388 273.429 349.187 270.577C352.039 259.166 353.751 248.783 355.12 240.112C355.805 235.776 356.375 231.897 356.831 228.474C357.288 225.051 357.858 222.198 357.858 219.688C357.858 217.292 357.402 215.352 356.717 214.325C356.033 213.184 355.576 212.842 355.576 212.842C355.576 212.842 356.033 213.298 356.603 214.439C357.174 215.58 357.63 217.406 357.63 219.802C357.63 222.198 357.06 225.051 356.489 228.474C355.919 231.897 355.348 235.776 354.664 240.112C353.18 248.669 351.355 259.052 348.502 270.462C347.818 273.315 347.019 276.282 345.764 279.02C344.623 281.872 342.797 284.497 340.515 286.779C335.837 291.229 329.219 293.739 322.373 294.195C314.614 293.625 306.513 293.168 298.298 292.598C291.68 292.141 285.291 291.571 279.015 291.115C275.934 290.886 272.854 290.544 269.773 290.316C266.806 289.974 263.726 289.745 260.987 289.289L261.216 289.631C261.558 281.53 262.014 273.657 262.357 266.583L262.128 266.811C280.498 267.496 295.902 267.838 306.627 267.838C311.99 267.838 316.212 267.724 319.064 267.61C320.548 267.496 321.575 267.496 322.373 267.382C322.716 267.382 322.944 267.268 323.172 267.268C323.514 266.811 323.628 266.811 323.628 266.811Z" fill="#263238"/>
<path d="M323.628 266.811C323.628 266.811 323.857 266.241 324.199 264.986C324.541 263.845 324.998 262.133 325.568 260.079C326.709 255.858 328.078 250.039 329.448 243.649C330.931 237.259 332.3 231.44 333.213 227.219C333.669 225.165 334.126 223.567 334.354 222.198C334.582 221.057 334.81 220.373 334.696 220.373C334.696 220.373 334.468 220.943 334.126 222.198C333.783 223.339 333.327 225.051 332.756 227.104C331.615 231.326 330.246 237.145 328.763 243.535C327.28 249.925 326.025 255.744 324.998 260.079C324.541 262.133 324.199 263.731 323.857 265.1C323.743 266.127 323.628 266.811 323.628 266.811Z" fill="#263238"/>
<path d="M334.81 200.405C334.81 200.405 334.81 200.861 334.924 201.66C335.038 202.459 335.267 203.6 335.495 205.083C335.609 205.767 335.723 206.566 335.951 207.479C336.065 207.935 336.408 208.392 336.978 208.62C337.549 208.848 338.005 208.62 338.461 208.62C340.401 208.278 342.455 207.707 344.509 207.137C348.844 205.996 352.61 204.741 355.348 203.828C356.603 203.371 357.744 203.029 358.657 202.801C359.456 202.573 359.798 202.344 359.798 202.344C359.798 202.344 359.342 202.344 358.543 202.573C357.744 202.801 356.603 203.029 355.234 203.371C352.382 204.17 348.616 205.311 344.28 206.452C342.113 207.023 340.059 207.593 338.233 207.935C337.777 208.049 337.32 208.164 336.978 208.049C336.636 207.935 336.408 207.593 336.293 207.251C336.065 206.566 335.951 205.653 335.723 204.969C335.381 203.6 335.152 202.459 334.924 201.66C334.924 200.861 334.81 200.405 334.81 200.405Z" fill="#263238"/>
<path d="M354.778 358.32L346.791 466.601L343.482 465.802L344.737 360.716L354.778 358.32Z" fill="#263238"/>
<path d="M388.551 362.085L412.741 466.487H408.405L373.718 362.085H388.551Z" fill="#263238"/>
<path d="M324.541 362.085L291.452 466.487H287.915L314.158 362.085H324.541Z" fill="#263238"/>
<path d="M320.091 369.159L394.142 417.538V420.162L318.038 369.159H320.091Z" fill="#263238"/>
<path d="M382.96 369.159L302.634 423.128V419.021L380.564 366.763L382.96 369.159Z" fill="#263238"/>
<path d="M399.619 363.91L304.231 362.199C300.58 362.085 297.842 359.004 298.298 355.353C298.64 352.272 301.379 349.876 304.459 349.99L401.216 351.588L399.619 363.91Z" fill="#009ECD"/>
<g opacity="0.2">
<path opacity="0.2" d="M399.619 363.91L304.231 362.199C300.58 362.085 297.842 359.004 298.298 355.353C298.64 352.272 301.379 349.876 304.459 349.99L401.216 351.588L399.619 363.91Z" fill="black"/>
</g>
<path d="M409.318 290.202L399.733 363.91L324.541 362.085L324.769 317.243C324.655 309.827 331.045 303.894 338.461 304.578L395.854 309.713L403.384 231.554L411.029 230.869C414.452 230.527 417.305 233.494 416.734 236.917L409.318 290.202Z" fill="#009ECD"/>
</svg>
